<svg width="122" height="57" viewBox="0 0 122 57" fill="none" xmlns="http://www.w3.org/2000/svg">
<path d="M56.0855 44.1271H77.032C77.8993 44.1271 80.3435 44.8367 80.3435 45.6777L78.5826 55.3494C78.5826 56.2167 77.873 56.9 77.032 56.9H56.0855C55.2182 56.9 54.5348 56.1904 54.5348 55.3494L52.774 45.6777C52.7477 44.8367 55.2182 44.1271 56.0855 44.1271Z" fill="#F9F9F9"/>
<path d="M74.0883 53.9827C73.2319 53.9827 72.5377 53.2885 72.5377 52.4321C72.5377 51.5757 73.2319 50.8815 74.0883 50.8815C74.9447 50.8815 75.6389 51.5757 75.6389 52.4321C75.6389 53.2885 74.9447 53.9827 74.0883 53.9827Z" fill="#B6D6D2"/>
<path d="M72.6165 52.9314C72.8268 53.5359 73.405 53.9827 74.0883 53.9827C74.7716 53.9827 75.3498 53.5359 75.5601 52.9314C75.5601 52.9314 74.9556 53.3257 74.0883 53.3257C73.221 53.3257 72.6165 52.9314 72.6165 52.9314Z" fill="#92B7B2"/>
<path d="M69.0685 53.9827C68.2121 53.9827 67.5179 53.2885 67.5179 52.4321C67.5179 51.5757 68.2121 50.8815 69.0685 50.8815C69.9249 50.8815 70.6191 51.5757 70.6191 52.4321C70.6191 53.2885 69.9249 53.9827 69.0685 53.9827Z" fill="#B6D6D2"/>
<path d="M67.5967 52.9314C67.807 53.5359 68.3852 53.9827 69.0685 53.9827C69.7518 53.9827 70.33 53.5359 70.5403 52.9314C70.5403 52.9314 69.9358 53.3257 69.0685 53.3257C68.2012 53.3257 67.5967 52.9314 67.5967 52.9314Z" fill="#92B7B2"/>
<path d="M63.9962 53.9827C63.1399 53.9827 62.4456 53.2885 62.4456 52.4321C62.4456 51.5757 63.1399 50.8815 63.9962 50.8815C64.8526 50.8815 65.5469 51.5757 65.5469 52.4321C65.5469 53.2885 64.8526 53.9827 63.9962 53.9827Z" fill="#B6D6D2"/>
<path d="M62.4981 52.9314C62.7083 53.5359 63.2865 53.9827 63.9699 53.9827C64.6532 53.9827 65.2314 53.5359 65.4417 52.9314C65.4417 52.9314 64.8372 53.3257 63.9699 53.3257C63.1026 53.3257 62.4981 52.9314 62.4981 52.9314Z" fill="#92B7B2"/>
<path d="M58.9501 53.9827C58.0937 53.9827 57.3995 53.2885 57.3995 52.4321C57.3995 51.5757 58.0937 50.8815 58.9501 50.8815C59.8065 50.8815 60.5007 51.5757 60.5007 52.4321C60.5007 53.2885 59.8065 53.9827 58.9501 53.9827Z" fill="#B6D6D2"/>
<path d="M57.4783 52.9314C57.6886 53.5359 58.2668 53.9827 58.9501 53.9827C59.6334 53.9827 60.2116 53.5359 60.4219 52.9314C60.4219 52.9314 59.8174 53.3257 58.9501 53.3257C58.0828 53.3257 57.4783 52.9314 57.4783 52.9314Z" fill="#92B7B2"/>
<path d="M35.3225 9.56656L25.7297 0H4.54658V13.7716H16.8202L35.3225 9.56656Z" fill="#BDBDBE"/>
<path d="M35.3228 42.1822L25.7299 51.7488H4.54682V37.9771H16.8204L35.3228 42.1822Z" fill="#BDBDBE"/>
<path d="M3.63559e-05 25.8875C3.63559e-05 37.5829 35.6907 47.0706 69.121 47.0706C102.551 47.0706 121.001 37.5566 121.001 25.8875C121.001 14.2184 102.525 4.70443 69.121 4.70443C35.7169 4.70443 3.63559e-05 14.1921 3.63559e-05 25.8875Z" fill="#DEDEDF"/>
<path d="M0.105086 24.7574C2.26019 13.5877 36.7681 4.70443 69.0947 4.70443C102.499 4.70443 120.975 14.1921 120.975 25.8875C120.975 26.3343 120.949 26.7811 120.896 27.2279C112.17 33.5881 94.8245 37.8457 70.0145 37.8457C42.1296 37.8457 12.7992 32.458 0.105086 24.7574Z" fill="#F9F9F9"/>
<path d="M6.78077 24.4946H33.9298C34.692 24.4946 35.3228 25.1254 35.3228 25.8875C35.3228 26.6497 34.692 27.2805 33.9298 27.2805H6.78077C6.0186 27.2805 5.38783 26.6497 5.38783 25.8875C5.38783 25.0991 6.0186 24.4946 6.78077 24.4946Z" fill="#BDBDBE"/>
</svg>
