<svg width="263" height="263" viewBox="0 0 263 263" fill="none" xmlns="http://www.w3.org/2000/svg">
<circle cx="131.5" cy="131.5" r="127" fill="#FFFDFD" stroke="black" stroke-width="9"/>
<path d="M117.539 24.4531H125.109L138.867 48.5703V24.4531H145.594V59H138.375L124.266 34.4609V59H117.539V24.4531Z" fill="black"/>
<path d="M122.883 227.336C123.102 228.914 123.531 230.094 124.172 230.875C125.344 232.297 127.352 233.008 130.195 233.008C131.898 233.008 133.281 232.82 134.344 232.445C136.359 231.727 137.367 230.391 137.367 228.438C137.367 227.297 136.867 226.414 135.867 225.789C134.867 225.18 133.297 224.641 131.156 224.172L127.5 223.352C123.906 222.539 121.422 221.656 120.047 220.703C117.719 219.109 116.555 216.617 116.555 213.227C116.555 210.133 117.68 207.562 119.93 205.516C122.18 203.469 125.484 202.445 129.844 202.445C133.484 202.445 136.586 203.414 139.148 205.352C141.727 207.273 143.078 210.07 143.203 213.742H136.266C136.141 211.664 135.234 210.188 133.547 209.312C132.422 208.734 131.023 208.445 129.352 208.445C127.492 208.445 126.008 208.82 124.898 209.57C123.789 210.32 123.234 211.367 123.234 212.711C123.234 213.945 123.781 214.867 124.875 215.477C125.578 215.883 127.078 216.359 129.375 216.906L135.328 218.336C137.938 218.961 139.906 219.797 141.234 220.844C143.297 222.469 144.328 224.82 144.328 227.898C144.328 231.055 143.117 233.68 140.695 235.773C138.289 237.852 134.883 238.891 130.477 238.891C125.977 238.891 122.438 237.867 119.859 235.82C117.281 233.758 115.992 230.93 115.992 227.336H122.883Z" fill="black"/>
<path d="M240.203 123.57H221.922V130.906H238.703V136.906H221.922V145.789H241.047V152H214.867V117.453H240.203V123.57Z" fill="black"/>
<path d="M34.3672 117.453L38.9375 137.234L39.9219 142.742L40.9297 137.352L44.8203 117.453H52.4375L56.5391 137.234L57.5938 142.742L58.6484 137.445L63.2656 117.453H70.6016L60.875 152H53.9844L49.8125 131.797L48.5938 125.117L47.375 131.797L43.2031 152H36.5L26.7031 117.453H34.3672Z" fill="black"/>
<path d="M133.828 82.1716C132.266 80.6095 129.734 80.6095 128.172 82.1716L102.716 107.627C101.154 109.19 101.154 111.722 102.716 113.284C104.278 114.846 106.81 114.846 108.373 113.284L131 90.6569L153.627 113.284C155.19 114.846 157.722 114.846 159.284 113.284C160.846 111.722 160.846 109.19 159.284 107.627L133.828 82.1716ZM135 183L135 85L127 85L127 183L135 183Z" fill="black"/>
</svg>
