<svg width="500" height="500" viewBox="0 0 500 500" fill="none" xmlns="http://www.w3.org/2000/svg">
<rect width="500" height="500" fill="#E5E5E5"/>
<g id="flask">
<rect width="500" height="500" fill="#938E8E"/>
<g id="flask" transform="translate(250 250) scale(2)">
<path id="bottle-outline&#39;" opacity="0.25" d="M-41.149 -114.96C-28.1536 -102.238 -30.115 -92.6201 -29.9737 -77.221L-29.5276 -28.5902L-92.8259 65.949C-108.144 91.412 -97.7814 116.325 -72.6567 114.854L72.6328 115C99.7902 114.886 109.706 89.7956 88.66 63.3576L28.6167 -28.3552L27.4867 -77.0638C27.3454 -92.4629 25.2079 -102.043 37.9678 -115L-41.149 -114.96Z" stroke="black" stroke-width="4" stroke-linecap="round" stroke-linejoin="round"/>
<path id="right-reflection" fill-rule="evenodd" clip-rule="evenodd" d="M72.6384 103.642C86.6146 104.938 92.0259 94.8 83.0304 77.7388L18.7891 -25.8734L19.2615 -94.6342C19.2167 -99.3439 19.8172 -104.053 23.5127 -108.763C15.4235 -104.963 13.294 -100.908 12.6484 -94.6342L12.176 -22.5766C12.0692 -6.28436 39.2252 25.9744 50.3883 45.6582C65.5822 72.4496 83.8004 94.6747 72.6384 103.642Z" fill="url(#paint0_linear)" fill-opacity="0.5"/>
</g>
</g>
<defs>
<linearGradient id="paint0_linear" x1="114.151" y1="-27.2284" x2="-0.964848" y2="16.3257" gradientUnits="userSpaceOnUse">
<stop stop-color="white" stop-opacity="0.661765"/>
<stop offset="1" stop-color="#FFFFFC" stop-opacity="0"/>
</linearGradient>
</defs>
</svg>
