<svg width="235" height="444" viewBox="0 0 235 444" fill="none" xmlns="http://www.w3.org/2000/svg">
<ellipse rx="2.95312" ry="27.8566" transform="matrix(0.795768 0.605602 -0.652869 0.757471 177.537 208.941)" fill="#0BA247"/>
<ellipse rx="3.0016" ry="27.3794" transform="matrix(0.941658 0.336572 -0.375226 0.926933 170.1 207.389)" fill="#0BA247"/>
<ellipse rx="2.98287" ry="27.5656" transform="matrix(0.88897 0.457966 -0.503948 0.863734 174.177 208.941)" fill="#0BA247"/>
<ellipse rx="2.93333" ry="28.0469" transform="matrix(0.725338 0.688393 -0.732145 0.681149 183.338 211.292)" fill="#0BA247"/>
<path d="M123 136.545L159.808 222.6L166.166 290.609L166.254 353.607L126.974 436.545" stroke="#059B14" stroke-width="13" stroke-linecap="round"/>
<ellipse cx="163.108" cy="71.3916" rx="19.5" ry="52.5" transform="rotate(45 163.108 71.3916)" fill="#F7D047"/>
<path d="M176.543 84.8266C166.323 95.0471 155.547 102.745 146.4 106.937C141.825 109.034 137.683 110.242 134.237 110.466C130.791 110.689 128.104 109.926 126.339 108.161C124.574 106.396 123.811 103.709 124.034 100.263C124.258 96.817 125.466 92.675 127.563 88.0999C131.755 78.9535 139.453 68.177 149.673 57.9566C159.894 47.7362 170.67 40.0383 179.817 35.8461C184.392 33.7492 188.534 32.5412 191.979 32.3176C195.426 32.094 198.113 32.857 199.878 34.6221C201.643 36.3871 202.406 39.0738 202.182 42.5206C201.959 45.9662 200.751 50.1082 198.654 54.6833C194.462 63.8297 186.764 74.6062 176.543 84.8266Z" stroke="black" stroke-opacity="0.2"/>
<ellipse cx="71.8916" cy="162.608" rx="19.5" ry="52.5" transform="rotate(45 71.8916 162.608)" fill="#F7D047"/>
<path d="M85.3266 176.043C75.1062 186.264 64.3298 193.962 55.1833 198.154C50.6082 200.251 46.4662 201.459 43.0206 201.682C39.5738 201.906 36.8871 201.143 35.1221 199.378C33.357 197.613 32.594 194.926 32.8176 191.479C33.0412 188.034 34.2492 183.892 36.3462 179.317C40.5383 170.17 48.2362 159.394 58.4566 149.173C68.677 138.953 79.4535 131.255 88.5999 127.063C93.175 124.966 97.317 123.758 100.763 123.534C104.209 123.311 106.896 124.074 108.661 125.839C110.426 127.604 111.189 130.291 110.966 133.737C110.742 137.183 109.534 141.325 107.437 145.9C103.245 155.047 95.5471 165.823 85.3266 176.043Z" stroke="black" stroke-opacity="0.2"/>
<ellipse cx="71.8916" cy="71.3916" rx="19.5" ry="52.5" transform="rotate(-45 71.8916 71.3916)" fill="#F7D047"/>
<path d="M85.3266 57.9566C95.5471 68.177 103.245 78.9535 107.437 88.0999C109.534 92.675 110.742 96.817 110.966 100.263C111.189 103.709 110.426 106.396 108.661 108.161C106.896 109.926 104.209 110.689 100.763 110.466C97.317 110.242 93.175 109.034 88.5999 106.937C79.4535 102.745 68.677 95.0471 58.4566 84.8267C48.2362 74.6062 40.5383 63.8298 36.3461 54.6833C34.2492 50.1082 33.0412 45.9662 32.8176 42.5206C32.594 39.0738 33.357 36.3871 35.1221 34.6221C36.8871 32.857 39.5738 32.094 43.0206 32.3176C46.4662 32.5412 50.6082 33.7492 55.1833 35.8462C64.3297 40.0383 75.1062 47.7362 85.3266 57.9566Z" stroke="black" stroke-opacity="0.2"/>
<ellipse cx="163.108" cy="162.608" rx="19.5" ry="52.5" transform="rotate(-45 163.108 162.608)" fill="#F7D047"/>
<path d="M176.543 149.173C186.764 159.394 194.462 170.17 198.654 179.317C200.751 183.892 201.959 188.034 202.182 191.479C202.406 194.926 201.643 197.613 199.878 199.378C198.113 201.143 195.426 201.906 191.979 201.682C188.534 201.459 184.392 200.251 179.817 198.154C170.67 193.962 159.894 186.264 149.673 176.043C139.453 165.823 131.755 155.047 127.563 145.9C125.466 141.325 124.258 137.183 124.034 133.737C123.811 130.291 124.574 127.604 126.339 125.839C128.104 124.074 130.791 123.311 134.237 123.534C137.683 123.758 141.825 124.966 146.4 127.063C155.547 131.255 166.323 138.953 176.543 149.173Z" stroke="black" stroke-opacity="0.2"/>
<ellipse cx="182" cy="117" rx="19.5" ry="52.5" transform="rotate(90 182 117)" fill="#F7D047"/>
<path d="M182 136C167.546 136 154.483 133.823 145.051 130.32C140.333 128.568 136.55 126.493 133.956 124.215C131.36 121.935 130 119.496 130 117C130 114.504 131.36 112.065 133.956 109.785C136.55 107.507 140.333 105.432 145.051 103.68C154.483 100.177 167.546 98 182 98C196.454 98 209.517 100.177 218.949 103.68C223.667 105.432 227.45 107.507 230.044 109.785C232.64 112.065 234 114.504 234 117C234 119.496 232.64 121.935 230.044 124.215C227.45 126.493 223.667 128.568 218.949 130.32C209.517 133.823 196.454 136 182 136Z" stroke="black" stroke-opacity="0.2"/>
<ellipse cx="53" cy="117" rx="19.5" ry="52.5" transform="rotate(90 53 117)" fill="#F7D047"/>
<path d="M53 136C38.5462 136 25.4828 133.823 16.051 130.32C11.3332 128.568 7.55013 126.493 4.95564 124.215C2.36026 121.935 1.00001 119.496 1.00001 117C1.00001 114.504 2.36026 112.065 4.95564 109.785C7.55013 107.507 11.3332 105.432 16.051 103.68C25.4828 100.177 38.5462 98 53 98C67.4539 98 80.5172 100.177 89.949 103.68C94.6668 105.432 98.4499 107.507 101.044 109.785C103.64 112.065 105 114.504 105 117C105 119.496 103.64 121.935 101.044 124.215C98.4499 126.493 94.6668 128.568 89.949 130.32C80.5172 133.823 67.4539 136 53 136Z" stroke="black" stroke-opacity="0.2"/>
<ellipse cx="117.5" cy="52.5" rx="19.5" ry="52.5" fill="#F7D047"/>
<path d="M136.5 52.5C136.5 66.9538 134.323 80.0172 130.82 89.449C129.068 94.1668 126.993 97.9499 124.715 100.544C122.435 103.14 119.996 104.5 117.5 104.5C115.004 104.5 112.565 103.14 110.285 100.544C108.007 97.9499 105.932 94.1668 104.18 89.449C100.677 80.0172 98.5 66.9538 98.5 52.5C98.5 38.0462 100.677 24.9828 104.18 15.551C105.932 10.8332 108.007 7.05013 110.285 4.45563C112.565 1.86026 115.004 0.5 117.5 0.5C119.996 0.5 122.435 1.86026 124.715 4.45563C126.993 7.05013 129.068 10.8332 130.82 15.551C134.323 24.9828 136.5 38.0462 136.5 52.5Z" stroke="black" stroke-opacity="0.2"/>
<ellipse cx="117.5" cy="181.5" rx="19.5" ry="52.5" fill="#F7D047"/>
<path d="M136.5 181.5C136.5 195.954 134.323 209.017 130.82 218.449C129.068 223.167 126.993 226.95 124.715 229.544C122.435 232.14 119.996 233.5 117.5 233.5C115.004 233.5 112.565 232.14 110.285 229.544C108.007 226.95 105.932 223.167 104.18 218.449C100.677 209.017 98.5 195.954 98.5 181.5C98.5 167.046 100.677 153.983 104.18 144.551C105.932 139.833 108.007 136.05 110.285 133.456C112.565 130.86 115.004 129.5 117.5 129.5C119.996 129.5 122.435 130.86 124.715 133.456C126.993 136.05 129.068 139.833 130.82 144.551C134.323 153.983 136.5 167.046 136.5 181.5Z" stroke="black" stroke-opacity="0.2"/>
<ellipse rx="4.05903" ry="42.429" transform="matrix(0.614402 0.788993 -0.454882 0.890552 183.794 319.034)" fill="#0BA247"/>
<ellipse rx="3.50285" ry="46.7359" transform="matrix(0.856311 0.51646 -0.233278 0.97241 175.902 316.256)" fill="#0BA247"/>
<ellipse rx="3.72864" ry="45.1127" transform="matrix(0.754707 0.656062 -0.326785 0.945099 180.228 319.034)" fill="#0BA247"/>
<ellipse rx="4.26303" ry="40.5612" transform="matrix(0.529651 0.848216 -0.537253 0.843421 189.95 323.245)" fill="#0BA247"/>
<ellipse rx="3.9218" ry="38.636" transform="matrix(0.905797 -0.423712 0.549443 0.835531 146.211 261.322)" fill="#0BA247"/>
<ellipse rx="3.75823" ry="40.0929" transform="matrix(0.713631 -0.700522 0.767184 0.641427 140.697 268.864)" fill="#0BA247"/>
<ellipse rx="3.82256" ry="39.5337" transform="matrix(0.810804 -0.585318 0.68145 0.731865 144.697 265.119)" fill="#0BA247"/>
<ellipse rx="3.98592" ry="38.0321" transform="matrix(0.946855 -0.32166 0.457164 0.889382 152.104 256.073)" fill="#0BA247"/>
</svg>
