<svg width="280" height="154" viewBox="0 0 280 154" fill="none" xmlns="http://www.w3.org/2000/svg">
<path d="M279.674 153.524H0.325851C0.325851 153.524 29.9232 95.9023 37.3226 92.9284C44.7219 89.9544 52.4258 87.3459 52.4258 87.3459C52.4258 87.3459 66.92 53.1505 72.7867 49.4356C78.6534 45.7207 91.5946 44.2287 94.3656 39.7627C96.9234 35.7027 114.564 5.84139 120.999 1.02014C121.396 0.664601 121.892 0.43806 122.42 0.370544C127.049 0.370544 167.08 53.9016 167.08 53.9016C167.08 53.9016 179.26 53.3535 185.35 55.7692C186.254 56.0879 187.083 56.5888 187.786 57.241C191.795 61.301 210.603 83.2656 213.993 83.2656C216.622 83.2656 229.087 86.3918 236.993 89.7108C238.888 90.4383 240.687 91.3926 242.353 92.5528C247.59 96.6433 275.665 128.24 279.674 153.524Z" fill="#68E1FD"/>
<path opacity="0.2" d="M119.964 17.4733C115.64 25.5933 109.52 33.3174 106.322 42.1987C102.069 54.0234 103.379 71.9382 103.968 84.6967C98.8925 80.5251 95.949 72.1513 89.8895 71.2074C84.9972 70.4461 80.7545 75.1354 77.9023 80.0277C76.47 82.309 75.504 84.8515 75.0603 87.5083C74.5934 91.0202 75.5475 94.5625 75.9434 98.0846C76.3392 101.607 76.0144 105.707 73.7104 107.94C72.3198 109.29 70.4725 109.676 68.7775 110.366C63.1341 112.65 58.6985 118.801 57.6125 125.855C56.5264 132.909 58.8203 138.877 62.3221 144.216C63.8243 146.51 68.0669 153.524 70.6247 153.524H0.325851C0.325851 153.524 29.9232 95.9023 37.3226 92.9284C44.7219 89.9544 52.4258 87.3459 52.4258 87.3459C52.4258 87.3459 66.92 53.1505 72.7867 49.4356C78.6534 45.7207 91.5946 44.2287 94.3656 39.7627C96.9234 35.7027 114.564 5.84139 120.999 1.02014L122.42 0.370544C122.42 0.370544 122.745 12.2562 119.964 17.4733Z" fill="black"/>
<path opacity="0.2" d="M170.217 125.733C170.146 135.782 173.394 149.718 174.226 153.524H126.592C126.592 153.524 142.304 139.953 145.552 137.162C150.18 133.173 151.642 119.542 153.093 113.401C154.23 108.499 156.139 106.905 158.798 102.967C161.65 98.5052 163.739 93.6 164.979 88.4523C166.674 81.8751 168.095 73.9378 167.933 67.0053C167.933 65.5437 165.903 53.9626 167.131 53.9017C167.131 53.9017 179.311 53.3536 185.401 55.7693C184.386 58.1545 183.442 60.5905 183.056 61.8593C182.397 64.0923 183.269 66.1832 183.645 68.2944C184.203 71.3394 184.427 74.3844 184.731 77.5918C185.431 85.2043 186.822 92.7051 187.827 100.267C189.227 110.874 189.857 121.998 186.913 132.148C185.523 128.941 184.782 125.388 183.442 122.15C182.102 118.912 179.95 115.867 177.027 115.045C171.901 113.736 170.267 118.811 170.217 125.733Z" fill="black"/>
<path opacity="0.2" d="M232.812 98.8763C230.65 106.306 232.812 134.188 232.812 134.188C229.919 126.977 227.746 119.497 226.326 111.858C224.478 100.693 214.004 83.2453 214.004 83.2453C216.633 83.2453 229.097 86.3715 237.004 89.6905C235.301 92.6038 233.897 95.6813 232.812 98.8763V98.8763Z" fill="black"/>
</svg>
