<svg width="266" height="150" viewBox="0 0 266 150" fill="none" xmlns="http://www.w3.org/2000/svg">
<path d="M131 0L265.913 150H0L131 0Z" fill="#68E1FD"/>
<path d="M131 0L119.5 36.5132L120.5 64.5496L103.5 72.9632V106.092H82V123.445L52.5 150H0.0865784L131 0Z" fill="#3EB0CB"/>
<path d="M168.561 71.0526L178.154 87.5L180 101.979L172.361 94.079L174.949 125.058H168.561L167.809 135.197H161.602L159.724 150H144L153.327 133.553L160.775 124.232V113.268L166.568 101.979L168.561 71.0526Z" fill="#3EB0CB"/>
<path d="M112.5 21.2171L131 0L150.5 21.7105L140.5 16.1716L143 24.5852L135.5 18.8008L137.5 26.6886L130 18.8008L128 24.5852L126.5 17.7491L119.5 26.6886L120.5 17.7491L112.5 21.2171Z" fill="#FFFDFD"/>
</svg>
