<svg width="704" height="634" viewBox="0 0 704 634" fill="none" xmlns="http://www.w3.org/2000/svg">
<rect width="500" height="500" transform="translate(204 134)" fill="white"/>
<path d="M205.297 270.165C273.391 270.165 328.593 214.963 328.593 146.868C328.593 78.7731 273.391 23.5714 205.297 23.5714C137.202 23.5714 82 78.7731 82 146.868C82 214.963 137.202 270.165 205.297 270.165Z" fill="#3F3D56"/>
<path d="M127.674 156.765C130.736 153.099 134.566 150.151 138.893 148.127C143.219 146.104 147.938 145.055 152.714 145.055C157.491 145.055 162.209 146.104 166.536 148.127C170.863 150.151 174.693 153.099 177.755 156.765C182.943 151.813 186.545 145.433 188.108 138.433C189.67 131.433 189.121 124.127 186.531 117.439C183.94 110.75 179.425 104.98 173.555 100.858C167.686 96.7365 160.726 94.4475 153.556 94.2811C146.385 94.1147 139.327 96.0783 133.272 99.9236C127.218 103.769 122.44 109.323 119.542 115.884C116.644 122.445 115.757 129.718 116.993 136.783C118.228 143.848 121.531 150.388 126.484 155.576C126.871 155.981 127.268 156.378 127.674 156.765Z" fill="white"/>
<path d="M225.586 156.765C228.648 153.1 232.478 150.151 236.805 148.127C241.131 146.104 245.85 145.055 250.626 145.055C255.403 145.055 260.121 146.104 264.448 148.127C268.775 150.151 272.605 153.1 275.667 156.765C280.855 151.813 284.457 145.433 286.019 138.433C287.582 131.433 287.033 124.127 284.443 117.439C281.852 110.75 277.337 104.98 271.467 100.858C265.598 96.7365 258.638 94.4475 251.468 94.2811C244.297 94.1147 237.239 96.0783 231.184 99.9236C225.13 103.769 220.352 109.323 217.454 115.884C214.556 122.445 213.669 129.718 214.905 136.783C216.14 143.848 219.443 150.388 224.396 155.576C224.783 155.981 225.18 156.378 225.586 156.765Z" fill="white"/>
<path d="M140.344 130.661C147.233 130.661 152.818 125.076 152.818 118.187C152.818 111.297 147.233 105.712 140.344 105.712C133.454 105.712 127.869 111.297 127.869 118.187C127.869 125.076 133.454 130.661 140.344 130.661Z" fill="#3F3D56"/>
<path d="M238.252 130.661C245.142 130.661 250.726 125.076 250.726 118.187C250.726 111.297 245.142 105.712 238.252 105.712C231.363 105.712 225.778 111.297 225.778 118.187C225.778 125.076 231.363 130.661 238.252 130.661Z" fill="#3F3D56"/>
<path d="M116.451 192.198C124.462 192.198 130.956 185.703 130.956 177.692C130.956 169.681 124.462 163.187 116.451 163.187C108.439 163.187 101.945 169.681 101.945 177.692C101.945 185.703 108.439 192.198 116.451 192.198Z" fill="#F9A826"/>
<path d="M283.264 192.198C291.275 192.198 297.769 185.703 297.769 177.692C297.769 169.681 291.275 163.187 283.264 163.187C275.252 163.187 268.758 169.681 268.758 177.692C268.758 185.703 275.252 192.198 283.264 192.198Z" fill="#F9A826"/>
<path d="M199.857 148.681L188.978 195.824L207.109 177.693L199.857 148.681Z" fill="#F9A826"/>
<path d="M255.757 330L243.405 319.634L243.693 330H239.857L239.55 319.039L222.874 330H215.893L239.426 314.532L238.514 282.053L237.833 257.523L241.66 257.418L242.351 282.053L243.261 314.503L261.721 330H255.757Z" fill="#3F3D56"/>
<path d="M197.73 330L185.379 319.634L185.667 330H181.841L181.534 319.039L164.857 330H157.876L181.4 314.532L180.489 282.053L179.808 257.523L183.643 257.418L184.334 282.053L185.235 314.503L203.695 330H197.73Z" fill="#3F3D56"/>
<path d="M207.11 14.5054C203.727 14.5054 200.742 17.1334 198.747 21.1699C196.988 15.1002 193.293 10.8791 188.978 10.8791C188.685 10.9083 188.394 10.9572 188.107 11.0254C186.448 4.54492 182.593 0 178.099 0C172.09 0 167.22 8.118 167.22 18.1319C167.22 28.1457 172.091 36.2637 178.099 36.2637C178.392 36.2346 178.683 36.1857 178.97 36.1174C180.628 42.5979 184.483 47.1429 188.978 47.1429C192.361 47.1429 195.346 44.5149 197.341 40.4784C199.1 46.5481 202.795 50.7692 207.11 50.7692C213.118 50.7692 217.989 42.6512 217.989 32.6373C217.989 22.6234 213.118 14.5054 207.11 14.5054Z" fill="#3F3D56"/>
<path d="M93.3718 165.591L25.4514 176.608C22.0287 177.163 18.5435 177.719 15.1099 177.236C11.6763 176.753 8.23921 175.062 6.48883 172.069C5.64761 170.631 5.23978 168.98 5.31433 167.315C5.38887 165.65 5.94263 164.042 6.90905 162.685C7.87548 161.327 9.21345 160.278 10.7621 159.662C12.3107 159.047 14.0041 158.892 15.6387 159.216C11.9313 159.336 8.03458 159.416 4.74469 157.702C1.4548 155.989 -0.874747 151.827 0.729183 148.482C1.21047 147.559 1.86157 146.735 2.64837 146.053C5.12419 143.834 8.1778 142.361 11.4558 141.805C14.7338 141.249 18.1022 141.633 21.1713 142.912C18.6708 139.326 13.7092 138.794 9.41717 137.963C5.12519 137.133 0.163524 134.705 0.00402446 130.337C-0.175196 125.428 5.6667 122.819 10.4759 121.82C36.1558 116.536 62.8113 118.708 87.2965 128.081C90.0482 129.028 92.6528 130.358 95.0335 132.032C97.7019 134.058 99.7298 136.81 100.875 139.959C102.019 143.108 102.232 146.52 101.488 149.787C100.744 153.054 99.074 156.037 96.6783 158.38C94.2827 160.722 91.2627 162.324 87.9799 162.995" fill="#3F3D56"/>
<path d="M396.814 122.268C371.22 116.584 344.534 118.341 319.905 127.331C317.139 128.235 314.514 129.524 312.108 131.161C309.408 133.145 307.337 135.866 306.144 138.996C304.95 142.127 304.684 145.535 305.377 148.813C306.07 152.091 307.694 155.1 310.052 157.48C312.411 159.859 315.406 161.509 318.678 162.23L313.246 164.742C335.826 168.766 358.407 172.791 380.987 176.816C384.4 177.424 387.876 178.035 391.317 177.605C394.758 177.175 398.221 175.539 400.018 172.573C400.735 171.399 401.16 170.07 401.258 168.698C401.355 167.325 401.122 165.95 400.578 164.686C400.033 163.422 399.194 162.308 398.13 161.436C397.065 160.564 395.807 159.96 394.461 159.675C397.047 159.786 399.624 159.294 401.986 158.235C405.302 156.573 407.696 152.448 406.144 149.079C405.677 148.148 405.039 147.314 404.263 146.62C401.822 144.363 398.792 142.843 395.523 142.236C392.254 141.629 388.88 141.96 385.791 143.191C388.347 139.644 393.317 139.189 397.621 138.426C401.926 137.662 406.924 135.313 407.152 130.947C407.408 126.042 401.607 123.342 396.814 122.268Z" fill="#3F3D56"/>
</svg>
