<svg width="174" height="17" viewBox="0 0 174 17" fill="none" xmlns="http://www.w3.org/2000/svg">
<path d="M46.3974 8.94097C45.9082 9.20028 45.0257 9.47731 43.9965 9.74357C41.1982 10.4676 37.3166 11.1133 37.3166 11.1133C37.3166 11.1133 17.5083 15.4704 1.66225 11.3114C1.66225 11.3114 -0.675783 10.4601 1.14555 8.64653C1.42618 8.37403 1.73046 8.127 2.05481 7.90835C2.05481 7.90835 2.06204 7.89868 2.07653 7.88057C2.2783 7.63645 2.50156 7.41092 2.74363 7.20669C3.45367 6.5993 4.68695 5.82606 6.32168 5.88114L46.6122 6.95328C46.6122 6.95328 48.2163 7.9764 46.3974 8.94097Z" fill="#FAFAFE"/>
<path d="M37.9598 6.75179L45.8464 0.262104L49.5537 0.63331L46.4141 7.12427C46.4141 7.12427 38.1295 7.78351 37.9598 6.75179Z" fill="#FAFAFE"/>
<path d="M15.319 6.71411L35.4083 0.301732L38.7633 0.545295L29.8017 4.68069L27.1399 7.5022L15.319 6.71411Z" fill="#FAFAFE"/>
<path d="M43.9964 9.74357C41.1982 10.4676 37.3165 11.1133 37.3165 11.1133C37.3165 11.1133 17.5082 15.4704 1.66222 11.3114C1.66222 11.3114 -0.675819 10.4601 1.14551 8.64653L1.15619 8.67376C1.15619 8.67376 4.69041 10.4275 20.4158 10.1728L43.9964 9.74357Z" fill="#E0DFDF"/>
<path d="M3.86256 8.63604C3.51235 8.68942 2.62955 8.209 2.07671 7.88056C2.27849 7.63645 2.50174 7.41091 2.74381 7.20668C3.18811 7.4616 3.97235 7.86562 4.36846 7.79418C4.94021 7.69102 4.38938 8.55585 3.86256 8.63604Z" fill="#C4FBFF"/>
<path d="M174 8.5L44 10L44 6.99999L174 8.5Z" fill="url(#chem_trail)"/>
<defs>
<linearGradient id="chem_trail" x1="174" y1="8.50001" x2="0.666667" y2="8.5" gradientUnits="userSpaceOnUse">
<stop stop-color="#FFFEFE" stop-opacity="0"/>
<stop offset="0.75249" stop-color="#FFFEFE" stop-opacity="0.26"/>
</linearGradient>
</defs>
</svg>
