<svg width="86" height="122" viewBox="0 0 86 122" fill="none" xmlns="http://www.w3.org/2000/svg">
<path fill-rule="evenodd" clip-rule="evenodd" d="M85.1286 39.9427C85.1286 54.8019 70.3959 73.3782 54.4949 84.6169C41.5326 84.4155 46.5612 84.355 31.8291 84.8384C14.6879 74.2724 0.875977 54.8563 0.875977 39.9427C0.875977 18.451 22.0542 -1.29145 43.4984 1.00907C64.8712 -1.73859 85.1286 18.451 85.1286 39.9427Z" fill="#9A0DB1"/>
<path fill-rule="evenodd" clip-rule="evenodd" d="M71.3168 40.0881C71.3168 54.9567 60.5411 74.2361 52.3597 84.8516C42.386 84.8567 46.482 84.7969 35.7659 85.0034C27.7135 74.4052 14.2275 54.9789 14.2275 40.0881C14.2275 18.4807 29.4324 0.944168 44.3296 0.944168C56.9637 0.944371 67.5786 13.5576 70.518 30.5689C71.0399 33.6164 71.3168 36.8057 71.3168 40.0881Z" fill="#FFFFED"/>
<path fill-rule="evenodd" clip-rule="evenodd" d="M53.2365 39.9417C53.2365 54.6982 49.2728 73.8267 46.2588 84.3843C40.3832 84.4266 46.4122 84.3823 40.0929 84.4477C37.1286 73.8881 33.3359 54.679 33.3359 39.9417C33.3359 18.4691 37.7932 1.0423 43.2862 1.0423C48.7782 1.04179 53.2365 18.4691 53.2365 39.9417V39.9417Z" fill="#9A0DB1"/>
<path d="M32.5305 84.8257C34.4839 91.6416 36.0267 98.6478 37.0645 105.685" stroke="#696767"/>
<path d="M39.4045 84.8235L41.8411 105.63" stroke="#696767"/>
<path d="M46.804 84.8477L45.7527 105.615" stroke="#696767"/>
<path d="M53.4461 84.8275C51.5633 91.9233 50.4269 98.7704 49.6846 105.645" stroke="#696767"/>
<path fill-rule="evenodd" clip-rule="evenodd" d="M32.051 85.2125L31.354 84.3771L54.7107 84.4011L54.1917 85.3853L32.051 85.2125Z" fill="#600070"/>
<path fill-rule="evenodd" clip-rule="evenodd" d="M34.3781 105.463C33.5465 105.463 32.8757 106.118 32.8757 106.923C32.8757 107.729 33.5465 108.383 34.3781 108.383H34.912C34.8861 108.554 34.8737 108.736 34.8737 108.947V115.895C34.8737 118.724 37.221 121 40.1303 121H47.0158C49.9251 121 52.2714 118.724 52.2714 115.895V108.947C52.2714 108.736 52.259 108.554 52.233 108.383H52.768C53.5985 108.383 54.2693 107.729 54.2693 106.923C54.2693 106.118 53.5985 105.463 52.768 105.463H34.3781V105.463Z" fill="#431102" stroke="black" stroke-width="0.0574834" stroke-linecap="round"/>
</svg>
