<svg width="103" height="59" viewBox="0 0 103 59" fill="none" xmlns="http://www.w3.org/2000/svg">
<path id="right-wing" d="M91.8143 3.26764C66.2198 -2.41576 39.5337 -0.658789 14.9053 8.33112C12.1391 9.23499 9.51405 10.5242 7.10764 12.1606C4.408 14.1451 2.33743 16.8655 1.14378 19.9962C-0.0498676 23.1269 -0.316017 26.5353 0.377176 29.8133C1.07037 33.0914 2.69356 36.1003 5.05242 38.4797C7.41128 40.8592 10.4059 42.5085 13.6778 43.2302L8.24624 45.7419C30.8265 49.7664 53.4066 53.791 75.9866 57.8157C79.4002 58.4243 82.8764 59.0347 86.3171 58.605C89.7577 58.1754 93.2208 56.5388 95.0176 53.5732C95.735 52.3992 96.1603 51.0702 96.2578 49.6977C96.3552 48.3253 96.1219 46.9495 95.5776 45.6859C95.0333 44.4223 94.1938 43.3077 93.1295 42.4357C92.0652 41.5637 90.8072 40.9598 89.4612 40.6747C92.0471 40.7865 94.6235 40.2936 96.9856 39.2353C100.302 37.5734 102.696 33.4481 101.144 30.079C100.677 29.1484 100.039 28.3142 99.263 27.6203C96.8221 25.3628 93.7919 23.8427 90.5229 23.2357C87.254 22.6288 83.88 22.9599 80.7914 24.1907C83.3474 20.6444 88.3168 20.1892 92.6211 19.426C96.9257 18.6625 101.924 16.3127 102.152 11.9469C102.408 7.04157 96.6073 4.34176 91.8143 3.26764Z" fill="#3F3D56"/>
</svg>
