<svg width="397" height="673" viewBox="0 0 397 673" fill="none" xmlns="http://www.w3.org/2000/svg">
<path d="M225.063 575.482C225.063 576.615 225.006 577.729 224.894 578.826C224.879 579.005 224.86 579.183 224.838 579.362C223.27 592.877 213.61 603.38 201.756 603.976H201.753C201.621 603.985 201.49 603.991 201.359 603.994C201.134 604.003 200.913 604.006 200.688 604.006C199.894 604.006 199.102 603.961 198.318 603.871C198.273 603.865 198.228 603.859 198.183 603.854C186.659 602.479 177.509 591.71 176.425 578.191C176.418 578.098 176.41 578.004 176.406 577.911C176.343 577.109 176.311 576.3 176.313 575.482C176.313 559.729 187.225 546.959 200.688 546.959C214.15 546.959 225.063 559.729 225.063 575.482Z" fill="#3F3D56"/>
<path d="M199.937 564.512C216.92 564.512 230.687 553.772 230.687 540.523C230.687 527.275 216.92 516.534 199.937 516.534C182.955 516.534 169.188 527.275 169.188 540.523C169.188 553.772 182.955 564.512 199.937 564.512Z" fill="#3F3D56"/>
<path d="M199.937 561.586C203.458 561.586 206.312 561.063 206.312 560.416C206.312 559.77 203.458 559.246 199.937 559.246C196.417 559.246 193.562 559.77 193.562 560.416C193.562 561.063 196.417 561.586 199.937 561.586Z" fill="#2F2E41"/>
<path d="M190.187 548.422C191.637 548.422 192.812 547.505 192.812 546.374C192.812 545.243 191.637 544.326 190.187 544.326C188.738 544.326 187.562 545.243 187.562 546.374C187.562 547.505 188.738 548.422 190.187 548.422Z" fill="#2F2E41"/>
<path d="M209.688 548.422C211.137 548.422 212.312 547.505 212.312 546.374C212.312 545.243 211.137 544.326 209.688 544.326C208.238 544.326 207.062 545.243 207.062 546.374C207.062 547.505 208.238 548.422 209.688 548.422Z" fill="#2F2E41"/>
<path opacity="0.1" d="M200.312 594.644C200.315 595.978 200.189 597.31 199.937 598.629C199.605 600.416 199.016 602.169 198.182 603.853C186.659 602.478 177.509 591.71 176.425 578.191C176.418 578.098 176.41 578.004 176.406 577.911C178.634 576.638 181.15 575.921 183.812 575.921C191.721 575.921 198.329 582.234 199.937 590.663C200.189 591.981 200.315 593.312 200.312 594.644V594.644Z" fill="black"/>
<path d="M200.312 597.277C200.315 598.611 200.189 599.942 199.937 601.262C198.685 607.815 194.41 613.092 188.849 615.111C187.794 615.498 186.672 615.764 185.519 615.9C184.954 615.968 184.384 616.001 183.812 616C182.199 615.998 180.603 615.736 179.125 615.231C177.938 614.83 176.829 614.302 175.829 613.663C170.751 610.474 167.312 604.33 167.312 597.277C167.312 586.936 174.7 578.554 183.812 578.554C191.721 578.554 198.329 584.867 199.937 593.296C200.189 594.614 200.315 595.944 200.312 597.277Z" fill="#3F3D56"/>
<path opacity="0.1" d="M224.894 578.826C224.879 579.005 224.86 579.183 224.837 579.362C223.27 592.877 213.61 603.38 201.756 603.976H201.753C200.888 602.254 200.279 600.459 199.937 598.629C199.438 595.988 199.438 593.304 199.937 590.663C201.546 582.234 208.154 575.921 216.062 575.921C219.31 575.921 222.34 576.986 224.894 578.826Z" fill="black"/>
<path d="M232.562 597.277C232.562 605.03 228.411 611.679 222.497 614.523C221.507 615.004 220.437 615.378 219.317 615.634C217.215 616.117 214.981 616.122 212.875 615.649C211.616 615.366 210.418 614.936 209.324 614.373C204.602 611.975 201.059 607.13 199.937 601.262C199.438 598.621 199.438 595.937 199.937 593.296C201.546 584.867 208.154 578.554 216.062 578.554C225.175 578.554 232.562 586.936 232.562 597.277Z" fill="#3F3D56"/>
<path d="M199.937 545.496C190.618 545.496 183.062 550.434 183.062 555.443C183.062 558.38 185.663 560.99 189.692 562.647C191.191 560.495 195.211 558.954 199.937 558.954C204.663 558.954 208.684 560.495 210.183 562.647C214.212 560.99 216.812 558.38 216.812 555.443C216.812 550.434 209.257 545.496 199.937 545.496Z" fill="#6C63FF"/>
<path d="M199.188 558.954C201.673 558.954 203.688 557.644 203.688 556.028C203.688 554.412 201.673 553.103 199.188 553.103C196.702 553.103 194.688 554.412 194.688 556.028C194.688 557.644 196.702 558.954 199.188 558.954Z" fill="#3F3D56"/>
<path d="M169.375 545.643C172.896 545.643 175.75 541.386 175.75 536.135C175.75 530.884 172.896 526.627 169.375 526.627C165.854 526.627 163 530.884 163 536.135C163 541.386 165.854 545.643 169.375 545.643Z" fill="#6C63FF"/>
<path d="M228.625 545.643C232.146 545.643 235 541.386 235 536.135C235 530.884 232.146 526.627 228.625 526.627C225.104 526.627 222.25 530.884 222.25 536.135C222.25 541.386 225.104 545.643 228.625 545.643Z" fill="#6C63FF"/>
<path d="M206.875 513.463C206.027 513.462 205.205 513.687 204.543 514.1C203.985 513.387 203.179 512.813 202.217 512.446C201.256 512.079 200.181 511.934 199.117 512.028C198.054 512.121 197.047 512.45 196.215 512.975C195.383 513.5 194.76 514.2 194.421 514.992C194.023 514.42 193.392 513.968 192.628 513.708C191.864 513.447 191.01 513.393 190.202 513.553C189.394 513.713 188.677 514.079 188.165 514.592C187.654 515.106 187.376 515.738 187.376 516.388C187.376 517.039 187.654 517.671 188.165 518.184C188.677 518.698 189.394 519.063 190.202 519.224C191.01 519.384 191.864 519.329 192.628 519.069C193.392 518.808 194.023 518.356 194.421 517.785C194.76 518.576 195.383 519.276 196.215 519.801C197.047 520.326 198.054 520.655 199.117 520.749C200.181 520.842 201.256 520.697 202.217 520.33C203.179 519.963 203.985 519.389 204.543 518.677C205.011 518.967 205.562 519.166 206.149 519.257C206.737 519.347 207.343 519.327 207.918 519.197C208.493 519.067 209.02 518.832 209.454 518.511C209.889 518.189 210.218 517.792 210.416 517.351C210.613 516.91 210.672 516.439 210.588 515.976C210.504 515.514 210.279 515.074 209.932 514.694C209.586 514.313 209.127 514.003 208.595 513.788C208.063 513.574 207.474 513.463 206.875 513.463V513.463Z" fill="#3F3D56"/>
<path d="M179.125 604.444V615.231C177.938 614.83 176.829 614.302 175.829 613.663L179.125 604.444Z" fill="#2F2E41"/>
<path d="M188.849 615.111C187.794 615.498 186.672 615.764 185.519 615.901L187.274 606.027L188.849 615.111Z" fill="#2F2E41"/>
<path d="M212.875 604.444V615.649C211.616 615.366 210.418 614.936 209.324 614.373L212.875 604.444Z" fill="#2F2E41"/>
<path d="M222.497 614.523C221.507 615.004 220.437 615.378 219.318 615.634L221.024 606.027L222.497 614.523Z" fill="#2F2E41"/>
<path d="M190.869 546.64C191.329 546.64 191.703 546.348 191.703 545.989C191.703 545.63 191.329 545.339 190.869 545.339C190.408 545.339 190.035 545.63 190.035 545.989C190.035 546.348 190.408 546.64 190.869 546.64Z" fill="white"/>
<path d="M210.464 546.64C210.925 546.64 211.298 546.348 211.298 545.989C211.298 545.63 210.925 545.339 210.464 545.339C210.004 545.339 209.63 545.63 209.63 545.989C209.63 546.348 210.004 546.64 210.464 546.64Z" fill="white"/>
<path d="M396.045 198C396.045 384 201.045 473 201.045 473C201.045 473 4.04456 384 0.0445626 198C-2.30656 88.6729 88.6922 0 198.045 0C307.397 0 396.045 88.6477 396.045 198Z" fill="url(#paint0_radial)"/>
<path d="M267.045 484H135.045L119.045 420H283.045L267.045 484Z" fill="#3F3D56"/>
<path d="M226.258 491.547H175.832L170.045 482.453H232.045L226.258 491.547Z" fill="#3F3D56"/>
<path d="M138.044 484H136.044V582H138.044V484Z" fill="#3F3D56"/>
<path d="M266.044 484H264.044V582H266.044V484Z" fill="#3F3D56"/>
<path d="M221.092 418.916L219.871 417.332C277.649 372.776 346.523 296.444 346.523 185.829C346.569 147.087 335.176 109.194 313.771 76.9022C292.367 44.6103 261.904 19.3571 226.204 4.30956L226.983 2.46777C263.046 17.668 293.817 43.1774 315.439 75.797C337.061 108.416 348.57 146.694 348.523 185.829C348.523 297.256 279.225 374.085 221.092 418.916Z" fill="#3F3D56"/>
<path d="M157.091 418.916L155.87 417.332C213.648 372.776 282.523 296.444 282.523 185.829C282.539 147.347 271.282 109.705 250.143 77.5498C229.003 45.3949 198.908 20.1367 163.574 4.89502L164.367 3.05908C200.06 18.4554 230.46 43.9699 251.814 76.4511C273.168 108.932 284.539 146.957 284.523 185.829C284.523 297.257 215.225 374.086 157.091 418.916Z" fill="#3F3D56"/>
<path d="M238.997 418.916C180.864 374.086 111.566 297.257 111.566 185.829C111.55 146.957 122.921 108.932 144.275 76.4503C165.629 43.9691 196.03 18.4546 231.723 3.05859L232.516 4.89452C197.182 20.1359 167.086 45.3941 145.947 77.5491C124.807 109.704 113.55 147.347 113.566 185.829C113.566 296.444 182.44 372.776 240.218 417.332L238.997 418.916Z" fill="#3F3D56"/>
<path d="M174.997 418.916C116.864 374.086 47.5657 297.257 47.5657 185.829C47.5004 146.54 59.0907 108.114 80.87 75.4141C102.649 42.7141 133.639 17.2092 169.918 2.12646L170.689 3.97216C134.774 18.9032 104.096 44.1519 82.5354 76.5234C60.9749 108.895 49.5011 146.934 49.5657 185.829C49.5657 296.445 118.44 372.776 176.219 417.332L174.997 418.916Z" fill="#3F3D56"/>
<path d="M199.044 0H197.044V420H199.044V0Z" fill="#3F3D56"/>
<path d="M274.044 579H124.044V597H274.044V579Z" fill="white"/>
<path d="M275.044 598H123.044V578H275.044V598ZM125.044 596H273.044V580H125.044V596Z" fill="#3F3D56"/>
<path d="M140 598H265L246 673H157.5L140 598Z" fill="#9E097D"/>
<defs>
<radialGradient id="paint0_radial" cx="0" cy="0" r="1" gradientUnits="userSpaceOnUse" gradientTransform="translate(49.9536 86.5) rotate(45.5209) scale(388.925 325.648)">
<stop stop-color="#FEB291"/>
<stop offset="0.395819" stop-color="#FF6C63"/>
</radialGradient>
</defs>
</svg>
