<svg width="122" height="57" viewBox="0 0 122 57" fill="none" xmlns="http://www.w3.org/2000/svg">
<path d="M64.9158 44.1271H43.9692C43.1019 44.1271 40.6577 44.8367 40.6577 45.6777L42.4186 55.3494C42.4186 56.2167 43.1282 56.9 43.9692 56.9H64.9158C65.7831 56.9 66.4664 56.1904 66.4664 55.3494L68.2273 45.6777C68.2536 44.8367 65.7831 44.1271 64.9158 44.1271Z" fill="#F9F9F9"/>
<path d="M46.9129 53.9827C47.7693 53.9827 48.4636 53.2885 48.4636 52.4321C48.4636 51.5757 47.7693 50.8815 46.9129 50.8815C46.0565 50.8815 45.3623 51.5757 45.3623 52.4321C45.3623 53.2885 46.0565 53.9827 46.9129 53.9827Z" fill="#B6D6D2"/>
<path d="M48.3847 52.9314C48.1745 53.5359 47.5963 53.9827 46.9129 53.9827C46.2296 53.9827 45.6514 53.5359 45.4412 52.9314C45.4412 52.9314 46.0456 53.3257 46.9129 53.3257C47.7802 53.3257 48.3847 52.9314 48.3847 52.9314Z" fill="#92B7B2"/>
<path d="M51.9327 53.9827C52.7891 53.9827 53.4833 53.2885 53.4833 52.4321C53.4833 51.5757 52.7891 50.8815 51.9327 50.8815C51.0763 50.8815 50.3821 51.5757 50.3821 52.4321C50.3821 53.2885 51.0763 53.9827 51.9327 53.9827Z" fill="#B6D6D2"/>
<path d="M53.4045 52.9314C53.1942 53.5359 52.616 53.9827 51.9327 53.9827C51.2494 53.9827 50.6712 53.5359 50.4609 52.9314C50.4609 52.9314 51.0654 53.3257 51.9327 53.3257C52.8 53.3257 53.4045 52.9314 53.4045 52.9314Z" fill="#92B7B2"/>
<path d="M57.005 53.9827C57.8614 53.9827 58.5556 53.2885 58.5556 52.4321C58.5556 51.5757 57.8614 50.8815 57.005 50.8815C56.1486 50.8815 55.4543 51.5757 55.4543 52.4321C55.4543 53.2885 56.1486 53.9827 57.005 53.9827Z" fill="#B6D6D2"/>
<path d="M58.5031 52.9314C58.2929 53.5359 57.7147 53.9827 57.0313 53.9827C56.348 53.9827 55.7698 53.5359 55.5596 52.9314C55.5596 52.9314 56.164 53.3257 57.0313 53.3257C57.8986 53.3257 58.5031 52.9314 58.5031 52.9314Z" fill="#92B7B2"/>
<path d="M62.0511 53.9827C62.9075 53.9827 63.6017 53.2885 63.6017 52.4321C63.6017 51.5757 62.9075 50.8815 62.0511 50.8815C61.1947 50.8815 60.5005 51.5757 60.5005 52.4321C60.5005 53.2885 61.1947 53.9827 62.0511 53.9827Z" fill="#B6D6D2"/>
<path d="M63.5229 52.9314C63.3127 53.5359 62.7345 53.9827 62.0511 53.9827C61.3678 53.9827 60.7896 53.5359 60.5793 52.9314C60.5793 52.9314 61.1838 53.3257 62.0511 53.3257C62.9184 53.3257 63.5229 52.9314 63.5229 52.9314Z" fill="#92B7B2"/>
<path d="M85.6787 9.56656L95.2715 0H116.455V13.7716H104.181L85.6787 9.56656Z" fill="#BDBDBE"/>
<path d="M85.6785 42.1822L95.2713 51.7488H116.454V37.9771H104.181L85.6785 42.1822Z" fill="#BDBDBE"/>
<path d="M121.001 25.8875C121.001 37.5829 85.3106 47.0706 51.8802 47.0706C18.4498 47.0706 0 37.5566 0 25.8875C0 14.2184 18.4761 4.70443 51.8802 4.70443C85.2843 4.70443 121.001 14.1921 121.001 25.8875Z" fill="#DEDEDF"/>
<path d="M120.896 24.7574C118.741 13.5877 84.2331 4.70443 51.9065 4.70443C18.5024 4.70443 0.0263672 14.1921 0.0263672 25.8875C0.0263672 26.3343 0.0526492 26.7811 0.105213 27.2279C8.83075 33.5881 26.1767 37.8457 50.9867 37.8457C78.8716 37.8457 108.202 32.458 120.896 24.7574Z" fill="#F9F9F9"/>
<path d="M114.22 24.4946H87.0714C86.3092 24.4946 85.6785 25.1254 85.6785 25.8875C85.6785 26.6497 86.3092 27.2805 87.0714 27.2805H114.22C114.983 27.2805 115.613 26.6497 115.613 25.8875C115.613 25.0991 114.983 24.4946 114.22 24.4946Z" fill="#BDBDBE"/>
</svg>
