<svg width="122" height="57" viewBox="0 0 122 57" fill="none" xmlns="http://www.w3.org/2000/svg">
<path d="M64.9158 44.1271H43.9692C43.1019 44.1271 40.6577 44.8367 40.6577 45.6777L42.4186 55.3494C42.4186 56.2167 43.1282 56.9 43.9692 56.9H64.9158C65.7831 56.9 66.4664 56.1904 66.4664 55.3494L68.2273 45.6777C68.2536 44.8367 65.7831 44.1271 64.9158 44.1271Z" fill="#F9F9F9"/>
<path d="M46.9129 53.9827C47.7693 53.9827 48.4636 53.2885 48.4636 52.4321C48.4636 51.5757 47.7693 50.8815 46.9129 50.8815C46.0565 50.8815 45.3623 51.5757 45.3623 52.4321C45.3623 53.2885 46.0565 53.9827 46.9129 53.9827Z" fill="#B6D6D2"/>
<path d="M48.3847 52.9314C48.1745 53.5359 47.5963 53.9827 46.9129 53.9827C46.2296 53.9827 45.6514 53.5359 45.4412 52.9314C45.4412 52.9314 46.0456 53.3257 46.9129 53.3257C47.7802 53.3257 48.3847 52.9314 48.3847 52.9314Z" fill="#92B7B2"/>
<path d="M51.9327 53.9827C52.7891 53.9827 53.4833 53.2885 53.4833 52.4321C53.4833 51.5757 52.7891 50.8815 51.9327 50.8815C51.0763 50.8815 50.3821 51.5757 50.3821 52.4321C50.3821 53.2885 51.0763 53.9827 51.9327 53.9827Z" fill="#B6D6D2"/>
<path d="M53.4045 52.9314C53.1942 53.5359 52.616 53.9827 51.9327 53.9827C51.2494 53.9827 50.6712 53.5359 50.4609 52.9314C50.4609 52.9314 51.0654 53.3257 51.9327 53.3257C52.8 53.3257 53.4045 52.9314 53.4045 52.9314Z" fill="#92B7B2"/>
<path d="M57.005 53.9827C57.8614 53.9827 58.5556 53.2885 58.5556 52.4321C58.5556 51.5757 57.8614 50.8815 57.005 50.8815C56.1486 50.8815 55.4543 51.5757 55.4543 52.4321C55.4543 53.2885 56.1486 53.9827 57.005 53.9827Z" fill="#B6D6D2"/>
<path d="M58.5031 52.9314C58.2929 53.5359 57.7147 53.9827 57.0313 53.9827C56.348 53.9827 55.7698 53.5359 55.5596 52.9314C55.5596 52.9314 56.164 53.3257 57.0313 53.3257C57.8986 53.3257 58.5031 52.9314 58.5031 52.9314Z" fill="#92B7B2"/>
<path d="M62.0511 53.9827C62.9075 53.9827 63.6017 53.2885 63.6017 52.4321C63.6017 51.5757 62.9075 50.8815 62.0511 50.8815C61.1947 50.8815 60.5005 51.5757 60.5005 52.4321C60.5005 53.2885 61.1947 53.9827 62.0511 53.9827Z" fill="#B6D6D2"/>
<path d="M63.5229 52.9314C63.3127 53.5359 62.7345 53.9827 62.0511 53.9827C61.3678 53.9827 60.7896 53.5359 60.5793 52.9314C60.5793 52.9314 61.1838 53.3257 62.0511 53.3257C62.9184 53.3257 63.5229 52.9314 63.5229 52.9314Z" fill="#92B7B2"/>
<path d="M85.6787 9.56656L95.2715 0H116.455V13.7716H104.181L85.6787 9.56656Z" fill="#BDBDBE"/>
<path d="M85.6785 42.1822L95.2713 51.7488H116.454V37.9771H104.181L85.6785 42.1822Z" fill="#BDBDBE"/>
<path d="M121.001 25.8875C121.001 37.5829 85.3106 47.0706 51.8802 47.0706C18.4498 47.0706 0 37.5566 0 25.8875C0 14.2184 18.4761 4.70443 51.8802 4.70443C85.2843 4.70443 121.001 14.1921 121.001 25.8875Z" fill="#DEDEDF"/>
<path d="M120.896 24.7574C118.741 13.5877 84.2331 4.70443 51.9065 4.70443C18.5024 4.70443 0.0263672 14.1921 0.0263672 25.8875C0.0263672 26.3343 0.0526492 26.7811 0.105213 27.2279C8.83075 33.5881 26.1767 37.8457 50.9867 37.8457C78.8716 37.8457 108.202 32.458 120.896 24.7574Z" fill="#F9F9F9"/>
<path d="M114.22 24.4946H87.0714C86.3092 24.4946 85.6785 25.1254 85.6785 25.8875C85.6785 26.6497 86.3092 27.2805 87.0714 27.2805H114.22C114.983 27.2805 115.613 26.6497 115.613 25.8875C115.613 25.0991 114.983 24.4946 114.22 24.4946Z" fill="#BDBDBE"/>
<path d="M37.7627 21.9559C39.0357 22.0956 40.1157 22.3296 41.0027 22.6582C41.8897 22.9867 42.6084 23.3809 43.1587 23.8408C43.7171 24.2926 44.1196 24.7977 44.366 25.3561C44.6206 25.9064 44.7479 26.4813 44.7479 27.0809C44.7479 27.7708 44.637 28.3785 44.4153 28.9042C44.1935 29.4298 43.8978 29.8939 43.5282 30.2963C43.1669 30.6905 42.748 31.0231 42.2716 31.2942C41.8035 31.5652 41.3189 31.7829 40.8179 31.9471C40.3252 32.1196 39.8365 32.2428 39.3519 32.3167C38.8673 32.3988 38.432 32.444 38.046 32.4522H37.738C37.3274 32.444 36.8551 32.407 36.3213 32.3413C35.7957 32.2839 35.2536 32.1894 34.6951 32.058C34.1448 31.9266 33.6028 31.7582 33.0689 31.5529C32.5351 31.3394 32.0587 31.0765 31.6399 30.7644C31.221 30.4523 30.8843 30.0828 30.6297 29.6557C30.375 29.2286 30.2477 28.7317 30.2477 28.165C30.2477 27.8611 30.297 27.5942 30.3956 27.3642C30.4941 27.1343 30.6297 26.9413 30.8021 26.7852C30.9746 26.621 31.1717 26.4937 31.3935 26.4033C31.6234 26.313 31.8698 26.2596 32.1326 26.2432C32.4529 26.2432 32.7486 26.313 33.0196 26.4526C33.2989 26.584 33.5412 26.7729 33.7465 27.0193C33.9518 27.2575 34.1161 27.549 34.2393 27.894C34.3707 28.2307 34.4446 28.6085 34.461 29.0274C34.4775 29.3641 34.5555 29.7091 34.6951 30.0622C34.8347 30.4154 35.0401 30.7357 35.3111 31.0231C35.5821 31.3106 35.9189 31.5447 36.3213 31.7254C36.7237 31.9061 37.196 31.9964 37.738 31.9964C38.1651 31.9964 38.5511 31.9102 38.8961 31.7377C39.2492 31.5652 39.549 31.3352 39.7954 31.0478C40.0418 30.7603 40.2307 30.4277 40.3621 30.0499C40.4935 29.6639 40.5592 29.2615 40.5592 28.8426C40.5592 28.4648 40.4935 28.0911 40.3621 27.7215C40.2307 27.3519 40.0254 27.0234 39.7461 26.7359C39.4669 26.4403 39.1096 26.198 38.6743 26.0091C38.239 25.8202 37.7175 25.7134 37.1097 25.6888C35.8696 25.6313 34.8101 25.4465 33.9313 25.1344C33.0607 24.8223 32.3462 24.4199 31.7877 23.9271C31.2292 23.4261 30.8186 22.8553 30.5557 22.2147C30.3011 21.574 30.1738 20.9006 30.1738 20.1942C30.1738 19.4304 30.2888 18.7611 30.5188 18.1862C30.7487 17.603 31.0526 17.102 31.4304 16.6832C31.8164 16.2561 32.2558 15.9029 32.7486 15.6237C33.2414 15.3362 33.7506 15.1063 34.2762 14.9338C34.8101 14.7613 35.3357 14.6422 35.8532 14.5765C36.3788 14.5026 36.8634 14.4656 37.3069 14.4656H37.4547C37.8653 14.4739 38.3212 14.5108 38.8222 14.5765C39.3314 14.634 39.8447 14.7285 40.3621 14.8599C40.8877 14.9913 41.3929 15.1638 41.8774 15.3773C42.3702 15.5908 42.8055 15.8537 43.1833 16.1657C43.5693 16.4778 43.8773 16.8474 44.1073 17.2745C44.3372 17.6934 44.4522 18.1779 44.4522 18.7282C44.4522 19.0485 44.3988 19.3278 44.2921 19.5659C44.1853 19.8041 44.0416 20.0053 43.8609 20.1696C43.6884 20.3257 43.4831 20.4447 43.2449 20.5269C43.0067 20.609 42.7603 20.6501 42.5057 20.6501C42.1936 20.6501 41.9021 20.5803 41.631 20.4406C41.36 20.301 41.1218 20.108 40.9165 19.8616C40.7194 19.6152 40.5592 19.3237 40.436 18.9869C40.321 18.642 40.2636 18.2642 40.2636 17.8535C40.2636 17.5004 40.2184 17.1513 40.128 16.8064C40.0377 16.4614 39.8817 16.1534 39.6599 15.8824C39.4464 15.6032 39.1589 15.3773 38.7975 15.2048C38.4362 15.0323 37.9885 14.9379 37.4547 14.9215H37.3315C36.9291 14.9379 36.5554 15.057 36.2104 15.2787C35.8737 15.4923 35.5821 15.7756 35.3357 16.1288C35.0893 16.4819 34.8963 16.8803 34.7567 17.3238C34.6253 17.7591 34.5596 18.2026 34.5596 18.6543C34.5596 19.0485 34.6171 19.4304 34.7321 19.8C34.8553 20.1696 35.0442 20.5063 35.2988 20.8102C35.5616 21.1059 35.8942 21.3564 36.2967 21.5617C36.6991 21.767 37.1878 21.8985 37.7627 21.9559Z" fill="#CDCDCD"/>
<path d="M54.1354 14.8476H51.9918L56.8087 25.9475C57.5479 24.0831 58.2871 22.227 59.0263 20.379C59.7737 18.5311 60.5169 16.6791 61.2561 14.8229L58.1023 14.7736V14.3178L64.5331 14.3917V14.8476L61.6996 14.8229L54.6898 32.4276L46.8422 14.8476H44.5754V14.3917H54.1354V14.8476Z" fill="#CDCDCD"/>
<path d="M72.4423 23.8532L82.0392 23.5205V24.0503L79.9942 24.1242L79.3536 32.4522L77.8752 30.3333C77.4399 30.8178 76.9923 31.1997 76.5324 31.479C76.0807 31.75 75.6372 31.9512 75.2019 32.0826C74.7748 32.2223 74.3682 32.3085 73.9822 32.3413C73.5962 32.3824 73.2513 32.4029 72.9474 32.4029H72.6024C72.3314 32.4029 71.9988 32.3865 71.6045 32.3537C71.2103 32.329 70.7832 32.2715 70.3233 32.1812C69.8716 32.0908 69.3993 31.9553 68.9066 31.7746C68.4138 31.6022 67.9292 31.3722 67.4529 31.0847C66.9847 30.7891 66.5371 30.4277 66.11 30.0006C65.6829 29.5735 65.3092 29.0643 64.9889 28.473C64.6686 27.8734 64.414 27.1835 64.2251 26.4033C64.0362 25.6149 63.9418 24.7155 63.9418 23.7053C63.9418 22.6951 64.0321 21.7876 64.2128 20.9827C64.3935 20.1778 64.6399 19.4633 64.952 18.8391C65.2723 18.2067 65.646 17.6605 66.0731 17.2006C66.5001 16.7324 66.956 16.3341 67.4405 16.0056C67.9333 15.6771 68.4384 15.406 68.9558 15.1925C69.4815 14.979 70.003 14.8106 70.5204 14.6874C71.0378 14.5642 71.5347 14.4821 72.0111 14.441C72.4957 14.3917 72.9351 14.3671 73.3293 14.3671C74.3477 14.3671 75.2717 14.5067 76.1012 14.786C76.9389 15.057 77.6535 15.4225 78.2448 15.8824C78.8443 16.3341 79.3043 16.8556 79.6246 17.447C79.9531 18.0383 80.1174 18.6502 80.1174 19.2826C80.1174 19.5865 80.0599 19.8698 79.9449 20.1326C79.8299 20.3873 79.678 20.609 79.4891 20.7979C79.3084 20.9868 79.0948 21.1346 78.8485 21.2414C78.6021 21.3482 78.3516 21.4016 78.097 21.4016C77.8341 21.3934 77.5672 21.3276 77.2962 21.2045C77.0334 21.0813 76.787 20.9088 76.557 20.687C76.3353 20.4653 76.1423 20.1942 75.978 19.8739C75.8219 19.5536 75.7193 19.1964 75.67 18.8021L75.5961 18.2231C75.555 17.87 75.4934 17.5004 75.4113 17.1144C75.3292 16.7283 75.206 16.3711 75.0417 16.0426C74.8857 15.7058 74.6803 15.4266 74.4257 15.2048C74.1711 14.9749 73.8467 14.8476 73.4525 14.8229H73.3293C72.9843 14.8229 72.6271 14.8886 72.2575 15.02C71.8879 15.1432 71.5224 15.3527 71.161 15.6483C70.8079 15.9358 70.4711 16.3095 70.1508 16.7694C69.8387 17.2293 69.5595 17.7919 69.3131 18.4572C69.0749 19.1142 68.886 19.8863 68.7464 20.7733C68.6068 21.6521 68.537 22.6541 68.537 23.7792C68.537 24.9044 68.5986 25.8859 68.7218 26.7236C68.8532 27.5613 69.0215 28.2841 69.2269 28.8919C69.4404 29.4996 69.6868 30.0006 69.966 30.3949C70.2453 30.7891 70.5327 31.1012 70.8284 31.3311C71.1323 31.5611 71.4362 31.7213 71.7401 31.8116C72.0439 31.9019 72.3314 31.9471 72.6024 31.9471H72.8488C73.4073 31.8896 73.9124 31.6473 74.3641 31.2203C74.553 31.0396 74.7378 30.8096 74.9185 30.5304C75.0992 30.2511 75.2594 29.9103 75.399 29.5078C75.5468 29.1054 75.6618 28.629 75.7439 28.0788C75.8343 27.5285 75.8794 26.892 75.8794 26.1692C75.8794 25.89 75.8671 25.5861 75.8425 25.2576C75.8261 24.9291 75.8055 24.5882 75.7809 24.2351L72.4423 24.3336V23.8532Z" fill="#CDCDCD"/>
</svg>
