<svg width="50" height="50" viewBox="0 0 50 50" fill="none" xmlns="http://www.w3.org/2000/svg">
<rect width="50" height="50" fill="#E5E5E5"/>
<g id="Frame 1" clip-path="url(#clip0)">
<rect width="500" height="500" fill="#938E8E"/>
<g id="bubble">
<g id="Ellipse 1">
<path d="M50 25C50 38.8071 38.8071 50 25 50C11.1929 50 0 38.8071 0 25C0 11.1929 11.1929 0 25 0C38.8071 0 50 11.1929 50 25Z" fill="url(#paint0_radial)"/>
<path d="M49 25C49 38.2548 38.2548 49 25 49C11.7452 49 1 38.2548 1 25C1 11.7452 11.7452 1 25 1C38.2548 1 49 11.7452 49 25Z" stroke="#FFFAFA" stroke-opacity="0.1" stroke-width="2"/>
</g>
<path id="Ellipse 2" d="M39 8.75C39 12.7541 32.732 16 25 16C17.268 16 11 12.7541 11 8.75C11 4.74594 17.268 1.5 25 1.5C32.732 1.5 39 4.74594 39 8.75Z" fill="#FFFAFA" fill-opacity="0.05"/>
</g>
</g>
<defs>
<radialGradient id="paint0_radial" cx="0" cy="0" r="1" gradientUnits="userSpaceOnUse" gradientTransform="translate(25 4.75) rotate(90) scale(45.25)">
<stop stop-color="#FFFAFA" stop-opacity="0.3"/>
<stop offset="0.682292" stop-color="#FFFDFD" stop-opacity="0"/>
</radialGradient>
<clipPath id="clip0">
<rect width="500" height="500" fill="white"/>
</clipPath>
</defs>
</svg>
