<svg width="500" height="500" viewbox="0 0 500 500" xmlns="http://www.w3.org/2000/svg">
    <defs>
        <g id="leaf"x>
            <path id="surface"
                d="M100 84.6795C100.018 121.961 77.6378 134.987 50.0247 135C49.3833 135 48.745 134.994 48.1097 134.98C46.83 134.953 45.5636 134.896 44.3105 134.808C19.3879 133.073 0.017013 119.399 5.01841e-06 84.7275C-0.0175982 48.847 46.2807 3.54423 49.7529 0.194545C49.756 0.194545 49.756 0.194545 49.759 0.1915C49.8909 0.0638335 49.9585 0 49.9585 0C49.9585 0 99.9817 47.4014 100 84.6795Z" />
            <path id="capillaries"
                d="M48.7282 124.075L65.7311 102.142L48.6866 126.482L48.6423 129C47.4516 128.977 46.2733 128.927 45.1073 128.851L46.9234 96.5223L46.909 96.2722L46.9404 96.2247L47.113 93.1698L30 68.7838L47.1631 90.8813L47.2063 91.5292L48.5782 67.1032L33.9261 41.9023L48.7559 62.8106L50.1711 12.1685L50.1767 12L50.1768 12.1659L49.958 52.1024L64.52 36.2635L49.897 55.5417L49.523 77.4128L63.123 56.418L49.4705 80.6282L49.2628 92.7896L69 63.5652L49.1879 97.0322L48.7282 124.075Z"
                fill="#3F3D56" stroke="none"/>
        </g>
    </defs>
</svg>