<svg width="102" height="59" viewBox="0 0 102 59" fill="none" xmlns="http://www.w3.org/2000/svg">
<path id="left-wing" d="M93.3718 46.5912L25.4514 57.6078C22.0287 58.1629 18.5435 58.7192 15.1099 58.236C11.6763 57.7528 8.23921 56.0623 6.48883 53.0691C5.64761 51.6306 5.23978 49.9797 5.31433 48.315C5.38887 46.6502 5.94263 45.0425 6.90905 43.6849C7.87548 42.3274 9.21345 41.2778 10.7621 40.6625C12.3107 40.0471 14.0041 39.8921 15.6387 40.2161C11.9313 40.3363 8.03458 40.4159 4.74469 38.7024C1.4548 36.9889 -0.874747 32.8268 0.729183 29.4822C1.21047 28.559 1.86157 27.735 2.64837 27.0533C5.12419 24.8341 8.1778 23.3613 11.4558 22.8054C14.7338 22.2495 18.1022 22.6331 21.1713 23.912C18.6708 20.3262 13.7092 19.7936 9.41717 18.9633C5.12519 18.1331 0.163524 15.7053 0.00402446 11.3367C-0.175196 6.428 5.6667 3.81905 10.4759 2.81981C36.1558 -2.46413 62.8113 -0.291555 87.2965 9.08113C90.0482 10.028 92.6528 11.3579 95.0335 13.0316C97.7019 15.0579 99.7298 17.8103 100.875 20.9592C102.019 24.1082 102.232 27.5203 101.488 30.7872C100.744 34.054 99.074 37.0372 96.6783 39.3797C94.2827 41.7221 91.2627 43.3245 87.9799 43.9951" fill="#3F3D56"/>
</svg>
