<svg width="74" height="114" viewBox="0 0 74 114" fill="none" xmlns="http://www.w3.org/2000/svg">
<path d="M74 34.8624C74 67.6119 37.5647 83.2823 37.5647 83.2823C37.5647 83.2823 0.755717 67.6119 0.00832642 34.8624C-0.430975 15.6129 16.5719 0 37.0042 0C57.4364 0 74 15.6084 74 34.8624Z" fill="url(#paint0_radial)"/>
<path d="M41.3105 73.7597L41.0823 73.4808C51.878 65.6357 64.747 52.1957 64.747 32.7194C64.7556 25.898 62.6268 19.2261 58.6274 13.5404C54.628 7.85471 48.9361 3.40831 42.2657 0.758859L42.4113 0.43457C49.1494 3.1109 54.899 7.60242 58.939 13.3458C62.979 19.0892 65.1294 25.8288 65.1207 32.7194C65.1207 52.3387 52.1726 65.8662 41.3105 73.7597Z" fill="#3F3D56"/>
<path d="M29.3521 73.7598L29.1239 73.4809C39.9197 65.6358 52.7888 52.1958 52.7888 32.7194C52.7917 25.9439 50.6884 19.316 46.7385 13.6545C42.7887 7.99287 37.1655 3.54559 30.5634 0.861954L30.7116 0.538696C37.3807 3.24957 43.061 7.74197 47.0509 13.461C51.0407 19.18 53.1654 25.8752 53.1625 32.7194C53.1625 52.3388 40.2143 65.8664 29.3521 73.7598Z" fill="#3F3D56"/>
<path d="M44.6561 73.7596C33.794 65.8663 20.8458 52.3388 20.8458 32.7194C20.8429 25.8751 22.9676 19.1799 26.9575 13.4608C30.9475 7.74178 36.6279 3.24939 43.297 0.538574L43.4452 0.861831C36.843 3.54542 31.2197 7.9927 27.2698 13.6543C23.32 19.3159 21.2166 25.9438 21.2195 32.7194C21.2195 52.1957 34.0885 65.6356 44.8843 73.4808L44.6561 73.7596Z" fill="#3F3D56"/>
<path d="M32.6978 73.7596C21.8356 65.8662 8.8875 52.3388 8.8875 32.7193C8.8753 25.8016 11.0409 19.0359 15.1103 13.2783C19.1797 7.52076 24.9701 3.03004 31.7487 0.37439L31.8927 0.699366C25.1822 3.32832 19.4501 7.77392 15.4215 13.4736C11.393 19.1734 9.24912 25.8711 9.2612 32.7193C9.2612 52.1958 22.1302 65.6357 32.926 73.4807L32.6978 73.7596Z" fill="#3F3D56"/>
<path d="M37.1911 0H36.8174V73.9505H37.1911V0Z" fill="#3F3D56"/>
<path d="M46.6798 85.9168H27.0661L24.6887 76.4071H49.0572L46.6798 85.9168Z" fill="#3F3D56"/>
<path d="M40.6193 87.0382H33.1266L32.2667 85.6869H41.4792L40.6193 87.0382Z" fill="#3F3D56"/>
<path d="M27.5118 85.9167H27.2146V100.478H27.5118V85.9167Z" fill="#3F3D56"/>
<path d="M46.5311 85.9167H46.2339V100.478H46.5311V85.9167Z" fill="#3F3D56"/>
<path d="M47.7198 100.033H25.4315V102.707H47.7198V100.033Z" fill="white"/>
<path d="M47.8684 102.856H25.283V99.8841H47.8684V102.856ZM25.5801 102.559H47.5712V100.181H25.5801V102.559Z" fill="#3F3D56"/>
<path d="M27.8024 102.856H46.3759L43.5527 114H30.4027L27.8024 102.856Z" fill="#9E097D"/>
<defs>
<radialGradient id="paint0_radial" cx="0" cy="0" r="1" gradientUnits="userSpaceOnUse" gradientTransform="translate(9.33372 15.2303) rotate(43.8196) scale(70.5673 59.0459)">
<stop stop-color="#FEB291"/>
<stop offset="0.395819" stop-color="#FF6C63"/>
</radialGradient>
</defs>
</svg>
