<?xml version="1.0" encoding="UTF-8"?>
<svg width="245" height="256" viewBox="0 0 245 256" version="1.1" xmlns="http://www.w3.org/2000/svg" xmlns:xlink="http://www.w3.org/1999/xlink">
    <!-- Generator: Sketch 52.5 (67469) - http://www.bohemiancoding.com/sketch -->
    <title>Pygg</title>
    <desc>Created with Sketch.</desc>
    <defs>
        <polygon id="path-1" points="0 0 244.99993 0 244.99993 230 0 230"></polygon>
        <polygon id="path-3" points="0.602931504 0.20671875 66.3969309 0.20671875 66.3969309 62.6850656 0.602931504 62.6850656"></polygon>
        <polygon id="path-5" points="0.603 0.20671875 66.3969994 0.20671875 66.3969994 62.6850656 0.603 62.6850656"></polygon>
    </defs>
    <g id="Login" stroke="none" stroke-width="1" fill="none" fill-rule="evenodd">
        <g id="Child-/-Login" transform="translate(-65.000000, -556.000000)">
            <g id="Pygg" transform="translate(65.000000, 556.000000)">
                <g id="Group-3" transform="translate(0.000000, 14.000000)">
                    <mask id="mask-2" fill="white">
                        <use xlink:href="#path-1"></use>
                    </mask>
                    <g id="Clip-2"></g>
                    <path d="M244.99993,115 C244.99993,178.513046 190.155131,230 122.49993,230 C54.8447284,230 -7.04022988e-05,178.513046 -7.04022988e-05,115 C-7.04022988e-05,51.486954 54.8447284,0 122.49993,0 C190.155131,0 244.99993,51.486954 244.99993,115" id="Fill-1" fill="#FFA9EA" mask="url(#mask-2)"></path>
                </g>
                <polygon id="Fill-4" fill="#FFA9EA" points="71 251 39.375 251 25 193 71 193"></polygon>
                <path d="M71,253 C71,254.6572 64.0602273,256 55.5,256 C46.9397727,256 40,254.6572 40,253 C40,251.3428 46.9397727,250 55.5,250 C64.0602273,250 71,251.3428 71,253" id="Fill-6" fill="#FFA9EA"></path>
                <polygon id="Fill-8" fill="#FFA9EA" points="175 251 206.625 251 221 193 175 193"></polygon>
                <path d="M175,253 C175,254.6572 181.939773,256 190.5,256 C199.060227,256 206,254.6572 206,253 C206,251.3428 199.060227,250 190.5,250 C181.939773,250 175,251.3428 175,253" id="Fill-10" fill="#FFA9EA"></path>
                <g id="Group-14" transform="translate(9.000000, 0.000000)">
                    <mask id="mask-4" fill="white">
                        <use xlink:href="#path-3"></use>
                    </mask>
                    <g id="Clip-13"></g>
                    <path d="M66.3969309,26.7107531 C47.775766,4.39825312 22.3565186,-5.82612187 8.86396186,3.86472187 C-4.62928557,13.5555656 -1.20675979,39.5785031 16.3092505,62.6850656 L66.3969309,26.7107531 Z" id="Fill-12" fill="#FFA9EA" mask="url(#mask-4)"></path>
                </g>
                <g id="Group-17" transform="translate(165.000000, 0.000000)">
                    <mask id="mask-6" fill="white">
                        <use xlink:href="#path-5"></use>
                    </mask>
                    <g id="Clip-16"></g>
                    <path d="M0.603,26.7107531 C19.2241649,4.39825312 44.6434124,-5.82612187 58.1359691,3.86472187 C71.6292165,13.5555656 68.2066907,39.5785031 50.6906804,62.6850656 L0.603,26.7107531 Z" id="Fill-15" fill="#FFA9EA" mask="url(#mask-6)"></path>
                </g>
                <path d="M156,132.5 C156,149.897093 141.00167,164 122.5,164 C103.99833,164 89,149.897093 89,132.5 C89,115.102907 103.99833,101 122.5,101 C141.00167,101 156,115.102907 156,132.5" id="Fill-18" fill="#EA4DC3"></path>
                <path d="M92,73.5 C92,75.98475 89.9855,78 87.5,78 C85.01525,78 83,75.98475 83,73.5 C83,71.01525 85.01525,69 87.5,69 C89.9855,69 92,71.01525 92,73.5" id="Fill-20" fill="#EA4DC3"></path>
                <path d="M162,73.5 C162,75.98475 159.9855,78 157.5,78 C155.01525,78 153,75.98475 153,73.5 C153,71.01525 155.01525,69 157.5,69 C159.9855,69 162,71.01525 162,73.5" id="Fill-22" fill="#EA4DC3"></path>
                <path d="M113,141 C108.05,141 104,137.611045 104,133.46899 L104,131.53101 C104,127.388955 108.05,124 113,124 C117.95,124 122,127.388955 122,131.53101 L122,133.46899 C122,137.611045 117.95,141 113,141" id="Fill-24" fill="#FFA9EA"></path>
                <path d="M135,141 C130.05,141 126,137.611045 126,133.46899 L126,131.53101 C126,127.388955 130.05,124 135,124 C139.95,124 144,127.388955 144,131.53101 L144,133.46899 C144,137.611045 139.95,141 135,141" id="Fill-26" fill="#FFA9EA"></path>
            </g>
        </g>
    </g>
</svg>