<svg width="68" height="112" viewBox="0 0 68 112" fill="none" xmlns="http://www.w3.org/2000/svg">
<path opacity="0.99" fill-rule="evenodd" clip-rule="evenodd" d="M35.9181 25.0789H44.496L46.5383 111.883H32.6504L35.9181 25.0789Z" fill="#E8E8E8"/>
<path opacity="0.99" fill-rule="evenodd" clip-rule="evenodd" d="M49.651 67.7164C47.0968 68.3991 36.7656 34.8916 34.8957 33.026C33.0266 31.1616 -0.558031 20.8531 0.126282 18.3059C0.810595 15.7576 35.0612 23.5852 37.6155 22.9024C40.1691 22.2197 65.909 -1.64462 67.7777 0.219813C69.6476 2.08541 45.7281 27.7653 45.0438 30.3137C44.3595 32.8617 52.2049 67.0337 49.651 67.7164Z" fill="#F1F1F1" stroke="white" stroke-linecap="round"/>
<path opacity="0.99" fill-rule="evenodd" clip-rule="evenodd" d="M43.1903 28.6235C43.1903 30.7618 41.4529 32.4951 39.3097 32.4951C37.1666 32.4951 35.4292 30.7618 35.4292 28.6235C35.4292 26.4853 37.1666 24.752 39.3097 24.752C41.4529 24.752 43.1903 26.4853 43.1903 28.6235Z" fill="#FFFDFD" stroke="#00D1FF" stroke-width="2" stroke-linecap="round"/>
</svg>
