<svg width="405" height="639" viewBox="0 0 405 639" fill="none" xmlns="http://www.w3.org/2000/svg">
<path d="M397.091 319.388C397.091 495.567 317.099 634.551 218.591 638.388C90.1284 643.392 -77.7658 515.302 40.091 319.388C130.909 168.421 120.008 0.388184 218.591 0.388184C317.174 0.388184 397.091 143.209 397.091 319.388Z" fill="#EDE9E9"/>
<path d="M293.461 413.049H38.947V634.074H293.461V413.049Z" fill="#6C63FF"/>
<path d="M201.446 193.119C201.446 193.119 243.793 194.27 250.787 196.814C257.78 199.359 260.908 217.554 260.908 217.554L228.029 227.888L203.437 226.495L184.929 227.803L195.263 200.738L201.446 193.119Z" fill="#2F2E41"/>
<path d="M203.273 179.223C203.273 179.223 206.059 189.984 199.876 197.603C193.692 205.223 226.458 232.373 226.458 232.373L243.743 229.402C243.743 229.402 239.933 196.338 245.051 187.965C250.168 179.593 203.273 179.223 203.273 179.223Z" fill="#9F616A"/>
<path opacity="0.1" d="M203.273 179.223C203.273 179.223 206.059 189.984 199.876 197.603C193.692 205.223 226.458 232.373 226.458 232.373L243.743 229.402C243.743 229.402 239.933 196.338 245.051 187.965C250.168 179.593 203.273 179.223 203.273 179.223Z" fill="black"/>
<path d="M318.23 493.843L280.092 544.42L306.119 559.616L341.941 501.007L318.23 493.843Z" fill="#9F616A"/>
<path d="M291.478 545.273C291.478 545.273 277.433 528.954 278.059 532.593C278.684 536.232 268.066 567.093 277.945 570.078C287.825 573.063 372.546 580.98 373.711 571.414C374.877 561.847 348.437 555.152 348.437 555.152C348.437 555.152 332.73 540.056 329.247 541.591C325.764 543.126 291.478 545.273 291.478 545.273Z" fill="#2F2E41"/>
<path d="M309.673 542.145L340.136 594.044L363.136 580.725L332.417 538.236L309.673 542.145Z" fill="#9F616A"/>
<path d="M357.762 418.674L348.721 431.468C348.721 431.468 305.622 491.327 310.199 496.16C314.776 500.993 333.838 519.259 343.533 515.72C353.228 512.18 387.67 450.999 387.67 450.999L378.686 415.078L357.762 418.674Z" fill="#2F2E41"/>
<path d="M172.1 406.563C172.1 406.563 181.752 424.574 206.216 430.672C230.68 436.77 256.239 449.236 257.148 449.08C258.058 448.924 260.631 447.545 261.257 451.184C261.882 454.823 268.592 461.163 268.592 461.163C268.592 461.163 295.615 552.991 305.935 553.091C316.255 553.19 337.463 545.799 337.904 542.913C338.345 540.027 306.304 446.251 305.991 444.432L302.238 422.598C302.238 422.598 344.613 429.364 348.565 430.558C352.517 431.752 387.67 450.999 387.67 450.999C387.67 450.999 423.506 425.17 389.987 399.086C356.468 373.001 298.855 353.868 298.855 353.868L278.186 348.054L260.173 346.979L257.521 336.808L214.859 339.27L170.337 358.161L172.1 406.563Z" fill="#2F2E41"/>
<path d="M228.405 200.642C246.758 200.642 261.636 185.764 261.636 167.411C261.636 149.057 246.758 134.179 228.405 134.179C210.052 134.179 195.173 149.057 195.173 167.411C195.173 185.764 210.052 200.642 228.405 200.642Z" fill="#9F616A"/>
<path d="M198.34 194.121L202.337 193.434C202.337 193.434 209.556 221.229 231.888 225.82C231.888 225.82 242.907 212.62 242.437 210.392C241.966 208.165 251.163 196.281 256.053 202.934C260.943 209.586 254.859 326.775 258.968 328.878C263.076 330.982 271.889 333.214 264.796 340.99C257.703 348.765 229.528 359.227 223.288 355.617C217.048 352.006 204.297 321.416 198.781 311.124C193.266 300.832 184.438 265.821 184.438 265.821C184.438 265.821 173.166 227.483 180.103 218.798C187.04 210.113 198.34 194.121 198.34 194.121Z" fill="#D0CDE1"/>
<path d="M230.145 338.391C229.402 346.554 228.13 354.661 226.338 362.659C224.708 369.167 222.811 373.097 220.645 372.929C215.12 372.516 212.608 380.621 211.313 389.964C209.929 399.876 209.929 411.184 209.17 415.181C208.165 420.461 201.735 424.491 188.887 423.307C181.235 422.437 173.725 420.595 166.539 417.826C149.192 411.519 149.705 360.371 152.608 322.417C154.382 299.154 157.05 280.836 157.05 280.836C157.05 280.836 151.781 265.118 150.096 254.346C149.76 252.381 149.592 250.39 149.594 248.396C149.85 238.986 167.03 213.557 177.411 197.717C187.804 181.877 201.981 193.497 201.981 193.497L197.047 208.388C197.047 208.388 204.693 220.188 204.749 231.417C204.805 242.647 223.056 250.752 229.609 256.188C233.728 259.604 233.628 305.204 230.145 338.391Z" fill="#2F2E41"/>
<path d="M244.574 198.819C244.574 198.819 245.772 200.234 251.255 199.544C257.832 198.715 266.874 200.991 268.974 207.269C272.827 218.783 283.687 265.622 283.687 265.622C283.687 265.622 288.208 319.169 290.24 330.996C292.273 342.823 291.264 353.3 293.268 359.512C295.273 365.723 273.481 347.926 265.449 350.243C257.418 352.56 252.258 322.539 253.267 312.062C254.276 301.586 255.129 290.199 252.343 279.439C249.557 268.678 254.497 240.198 254.312 233.674C254.127 227.149 236.602 210.705 244.574 198.819Z" fill="#2F2E41"/>
<path d="M268.088 365.244C268.088 365.244 303.274 384.44 306.641 411.762C310.009 439.084 259.579 385.307 259.579 385.307L268.088 365.244Z" fill="#9F616A"/>
<path d="M288.174 345.869C288.174 345.869 298.956 400.214 315.751 397.327C332.547 394.441 306.369 342.742 306.369 342.742L288.174 345.869Z" fill="#9F616A"/>
<path d="M345.694 582.786C345.694 582.786 337.094 592.694 334.961 591.187C332.829 589.68 327.925 610.192 332.346 614.116C336.767 618.039 353.796 624.478 353.981 631.003C354.166 637.528 399.839 636.234 401.473 629.397C403.108 622.559 395.745 606.965 390.57 604.108C385.396 601.251 366.264 574.954 366.264 574.954C366.264 574.954 351.28 577.143 345.694 582.786Z" fill="#2F2E41"/>
<path opacity="0.1" d="M262.484 398.481C254.323 392.721 231.54 391.292 211.313 389.964C202.438 389.394 194.055 388.836 187.614 387.932C181.408 387.073 175.826 381.402 170.87 372.952C163.357 360.148 157.285 340.948 152.607 322.417C154.382 299.154 157.05 280.836 157.05 280.836C157.05 280.836 151.781 265.118 150.096 254.346C151.284 252.692 152.814 251.314 154.583 250.305C176.038 241.096 196.522 331.727 199.123 345.949C199.168 346.183 199.201 346.406 199.235 346.596C200.496 353.919 214.126 360.181 226.338 362.659C233.862 364.189 240.861 364.289 244.087 362.302C252.56 357.1 278.614 377.919 280.59 378.511C282.566 379.113 274.205 406.775 262.484 398.481Z" fill="black"/>
<path d="M154.587 244.726C154.587 244.726 138.993 252.089 145.845 286.504C152.697 320.918 166.499 379.427 187.609 382.355C208.718 385.283 250.752 384.615 262.479 392.903C274.206 401.19 282.565 373.527 280.589 372.93C278.613 372.333 252.557 351.523 244.085 356.725C235.613 361.928 201.269 352.845 199.236 341.018C197.204 329.191 176.393 235.358 154.587 244.726Z" fill="#2F2E41"/>
<path d="M266.956 228.222L284.094 267.989C284.094 267.989 285.819 267.128 287.824 273.34C289.828 279.552 290.766 285.011 294.277 289.091C297.788 293.17 313.411 351.366 313.88 354.096C314.349 356.825 292.303 366.234 287.377 358.651C282.451 351.068 266.956 228.222 266.956 228.222Z" fill="#2F2E41"/>
<path d="M209.498 166.948C210.772 166.608 210.959 164.917 211.002 163.6C211.23 156.544 215.479 149.305 222.232 147.251C224.824 146.54 227.537 146.391 230.191 146.813C233.979 147.317 237.637 148.538 240.969 150.409C242.728 151.397 244.454 152.589 246.449 152.891C247.767 153.09 253.472 154.749 254.784 154.982C257.669 155.496 260.35 158.077 263.118 157.116C265.766 156.197 266.352 152.768 266.416 149.966C266.562 143.581 261.715 134.745 257.446 129.995C254.207 126.391 249.329 124.727 244.56 123.862C238.99 122.967 233.345 122.623 227.708 122.837C220.077 122.973 212.234 123.562 205.353 126.864C198.472 130.166 192.692 136.737 192.362 144.362C192.293 145.951 192.457 147.546 192.323 149.13C191.998 152.995 189.945 156.486 188.983 160.243C188.294 163 188.191 165.87 188.68 168.669C189.17 171.468 190.24 174.133 191.822 176.493C194.376 180.252 198.39 183.651 198.242 188.192L203.78 182.455C204.607 181.824 205.192 180.928 205.438 179.917C205.684 178.905 205.576 177.841 205.132 176.9L203.172 169.254C202.668 167.89 202.609 166.4 203.002 165C205.103 159.808 207.375 167.515 209.498 166.948Z" fill="#2F2E41"/>
</svg>
