<svg width="226" height="127" viewBox="0 0 226 127" fill="none" xmlns="http://www.w3.org/2000/svg">
<path d="M28.392 83.768C19.88 83.768 13.064 82.168 7.944 78.968C2.824 75.704 0.264 70.744 0.264 64.088C0.264 60.568 0.872 57.88 2.088 56.024C3.304 54.168 5.096 53.24 7.464 53.24C9.192 53.24 10.6 53.688 11.688 54.584C12.776 55.48 13.32 56.632 13.32 58.04C13.32 59.32 13.224 60.44 13.032 61.4C13.032 61.656 12.968 62.104 12.84 62.744C12.776 63.384 12.744 64.056 12.744 64.76C12.744 67.64 14.184 69.784 17.064 71.192C20.008 72.6 24.104 73.304 29.352 73.304C34.792 73.304 39.048 72.344 42.12 70.424C45.192 68.44 46.728 65.688 46.728 62.168C46.728 59.992 46.024 58.136 44.616 56.6C43.208 55 41.448 53.688 39.336 52.664C37.224 51.576 34.248 50.264 30.408 48.728C25.48 46.808 21.448 44.984 18.312 43.256C15.24 41.528 12.584 39.192 10.344 36.248C8.168 33.24 7.08 29.528 7.08 25.112C7.08 20.504 8.296 16.408 10.728 12.824C13.224 9.24 16.776 6.456 21.384 4.472C26.056 2.488 31.528 1.496 37.8 1.496C42.472 1.496 46.76 2.2 50.664 3.608C54.568 4.952 57.672 7.032 59.976 9.848C62.344 12.664 63.528 16.12 63.528 20.216C63.528 24.248 62.92 27.288 61.704 29.336C60.488 31.384 58.696 32.408 56.328 32.408C54.664 32.408 53.256 31.896 52.104 30.872C51.016 29.848 50.472 28.632 50.472 27.224C50.472 26.008 50.568 24.888 50.76 23.864C50.952 21.944 51.048 20.728 51.048 20.216C51.048 17.528 49.736 15.48 47.112 14.072C44.488 12.664 41.224 11.96 37.32 11.96C31.816 11.96 27.592 12.984 24.648 15.032C21.768 17.016 20.328 19.832 20.328 23.48C20.328 25.912 21.064 27.992 22.536 29.72C24.072 31.448 25.96 32.888 28.2 34.04C30.44 35.192 33.576 36.568 37.608 38.168C42.472 40.152 46.376 41.944 49.32 43.544C52.264 45.144 54.76 47.32 56.808 50.072C58.92 52.824 59.976 56.216 59.976 60.248C59.976 67.8 57.096 73.624 51.336 77.72C45.64 81.752 37.992 83.768 28.392 83.768ZM146.507 41.528C147.979 41.528 149.035 41.848 149.675 42.488C150.379 43.128 150.731 43.96 150.731 44.984C150.731 46.648 150.219 48.12 149.195 49.4C148.235 50.68 146.699 51.352 144.587 51.416C139.467 51.544 134.923 51.16 130.955 50.264C126.411 59.8 120.907 67.736 114.443 74.072C108.043 80.344 101.611 83.48 95.1465 83.48C88.4905 83.48 83.5305 79.608 80.2665 71.864C77.0025 64.12 75.3705 53.656 75.3705 40.472C75.3705 29.208 76.1705 19.096 77.7705 10.136C78.3465 6.80799 79.1465 4.568 80.1705 3.41599C81.2585 2.2 83.0825 1.592 85.6425 1.592C89.8665 1.592 91.9785 3.416 91.9785 7.064C91.9785 7.448 91.9145 8.152 91.7865 9.17599C89.8665 20.696 88.9065 31.128 88.9065 40.472C88.9065 50.264 89.7065 57.72 91.3065 62.84C92.9705 67.896 95.4345 70.424 98.6985 70.424C102.027 70.424 105.643 68.12 109.547 63.512C113.451 58.904 117.035 53.112 120.299 46.136C116.395 43.704 113.451 40.568 111.467 36.728C109.483 32.824 108.491 28.344 108.491 23.288C108.491 18.232 109.259 13.976 110.795 10.52C112.395 6.99999 114.539 4.376 117.227 2.648C119.979 0.919998 123.019 0.0559978 126.347 0.0559978C130.443 0.0559978 133.675 1.528 136.043 4.472C138.475 7.416 139.691 11.448 139.691 16.568C139.691 23.928 138.091 31.96 134.891 40.664C138.283 41.24 142.155 41.528 146.507 41.528ZM118.187 22.616C118.187 28.888 120.203 33.528 124.235 36.536C126.731 29.368 127.979 23.448 127.979 18.776C127.979 16.088 127.627 14.136 126.923 12.92C126.219 11.64 125.259 11 124.043 11C122.315 11 120.907 12.024 119.819 14.072C118.731 16.056 118.187 18.904 118.187 22.616ZM222.413 61.784C223.245 61.784 223.885 62.2 224.333 63.032C224.845 63.8 225.101 64.792 225.101 66.008C225.101 67.48 224.877 68.632 224.429 69.464C223.981 70.296 223.277 71.032 222.317 71.672C218.541 74.168 212.525 78.264 204.269 83.96C201.773 97.208 198.541 107.64 194.573 115.256C190.605 122.872 185.581 126.68 179.501 126.68C176.237 126.68 173.581 125.656 171.533 123.608C169.485 121.624 168.461 119 168.461 115.736C168.461 112.728 169.133 109.688 170.477 106.616C171.821 103.544 174.317 99.992 177.965 95.96C181.677 91.928 186.893 87.32 193.613 82.136L193.901 80.312C188.845 82.424 183.885 83.48 179.021 83.48C171.853 83.48 165.549 82.104 160.109 79.352C154.669 76.536 150.445 72.568 147.437 67.448C144.429 62.328 142.925 56.376 142.925 49.592C142.925 40.12 144.717 31.768 148.301 24.536C151.885 17.24 156.813 11.608 163.085 7.64C169.421 3.608 176.493 1.592 184.301 1.592C191.789 1.592 197.389 3.352 201.101 6.872C204.877 10.328 206.765 14.936 206.765 20.696C206.765 24.472 206.061 27.512 204.653 29.816C203.309 32.056 201.357 33.176 198.797 33.176C197.069 33.176 195.661 32.76 194.573 31.928C193.549 31.096 193.037 29.944 193.037 28.472C193.037 27.832 193.165 26.744 193.421 25.208C193.805 23.416 193.997 22.008 193.997 20.984C193.997 18.296 193.165 16.216 191.501 14.744C189.901 13.272 187.181 12.536 183.341 12.536C178.669 12.536 174.317 13.88 170.285 16.568C166.317 19.256 163.117 23.288 160.685 28.664C158.253 33.976 157.037 40.376 157.037 47.864C157.037 55.544 159.117 61.496 163.277 65.72C167.501 69.88 173.581 71.96 181.517 71.96C185.933 71.96 190.541 70.968 195.341 68.984L196.685 57.272H186.893C185.101 57.272 183.725 56.856 182.765 56.024C181.805 55.128 181.325 53.688 181.325 51.704C181.325 49.912 181.805 48.504 182.765 47.48C183.725 46.456 185.005 45.944 186.605 45.944H204.557C205.965 45.944 207.117 46.424 208.013 47.384C208.973 48.28 209.357 49.592 209.165 51.32C208.973 53.368 208.333 58.008 207.245 65.24L206.189 72.536C211.309 68.696 215.981 65.368 220.205 62.552C221.037 62.04 221.773 61.784 222.413 61.784ZM180.557 117.368C182.221 117.368 184.045 115.48 186.029 111.704C188.013 107.928 189.869 101.848 191.597 93.464C186.733 97.624 183.213 101.368 181.037 104.696C178.925 108.088 177.869 111.064 177.869 113.624C177.869 116.12 178.765 117.368 180.557 117.368Z" fill="black"/>
</svg>
