<svg width="432" height="641" viewBox="0 0 432 641" fill="none" xmlns="http://www.w3.org/2000/svg">
<path d="M215.865 583.811C335.084 583.811 431.73 487.165 431.73 367.946C431.73 248.727 335.084 152.081 215.865 152.081C96.646 152.081 0 248.727 0 367.946C0 487.165 96.646 583.811 215.865 583.811Z" fill="#2F2E41"/>
<path d="M331.892 391.331C331.892 398.293 331.623 405.146 331.083 411.892C331.011 412.989 330.921 414.087 330.813 415.184C323.294 498.292 276.955 562.872 220.092 566.541H220.074C219.445 566.595 218.815 566.631 218.186 566.649C217.106 566.703 216.045 566.721 214.966 566.721C211.161 566.726 207.361 566.45 203.597 565.894C203.381 565.858 203.165 565.822 202.949 565.786C147.67 557.331 103.777 491.115 98.5784 407.989C98.5425 407.413 98.5065 406.837 98.4885 406.262C98.1827 401.333 98.0328 396.356 98.0387 391.331C98.0387 294.461 150.386 215.941 214.966 215.941C279.545 215.941 331.892 294.462 331.892 391.331Z" fill="#3F3D56"/>
<path d="M211.368 323.873C292.834 323.873 358.876 257.832 358.876 176.366C358.876 94.8992 292.834 28.8578 211.368 28.8578C129.902 28.8578 63.8601 94.8992 63.8601 176.366C63.8601 257.832 129.902 323.873 211.368 323.873Z" fill="#3F3D56"/>
<path d="M165 231C182.121 231 196 217.121 196 200C196 182.879 182.121 169 165 169C147.879 169 134 182.879 134 200C134 217.121 147.879 231 165 231Z" fill="white"/>
<path d="M259 227C273.912 227 286 214.688 286 199.5C286 184.312 273.912 172 259 172C244.088 172 232 184.312 232 199.5C232 214.688 244.088 227 259 227Z" fill="#FAFAFA"/>
<path opacity="0.1" d="M213.167 509.157C213.177 517.358 212.576 525.547 211.368 533.658C209.773 544.649 206.949 555.425 202.949 565.786C147.67 557.331 103.777 491.115 98.5782 407.989C98.5423 407.413 98.5063 406.837 98.4883 406.262C109.174 398.437 121.244 394.029 134.016 394.029C171.954 394.029 203.651 432.849 211.368 484.675C212.576 492.779 213.177 500.963 213.167 509.157V509.157Z" fill="black"/>
<path d="M213.167 525.347C213.177 533.547 212.576 541.737 211.368 549.848C205.36 590.143 184.852 622.594 158.175 635.007C153.114 637.391 147.733 639.027 142.201 639.864C139.492 640.276 136.756 640.48 134.016 640.475C126.275 640.465 118.619 638.855 111.53 635.744C105.837 633.281 100.515 630.036 95.7182 626.102C71.3614 606.495 54.8657 568.718 54.8657 525.347C54.8657 461.757 90.3036 410.219 134.016 410.219C171.955 410.219 203.651 449.039 211.368 500.865C212.576 508.969 213.178 517.153 213.167 525.347Z" fill="#3F3D56"/>
<path opacity="0.1" d="M331.083 411.892C331.011 412.989 330.921 414.087 330.813 415.184C323.294 498.292 276.955 562.872 220.092 566.541H220.074C215.928 555.948 213.007 544.915 211.368 533.658C208.969 517.418 208.969 500.914 211.368 484.675C219.085 432.849 250.781 394.029 288.719 394.029C304.298 394.029 318.833 400.577 331.083 411.892Z" fill="black"/>
<path d="M367.87 525.347C367.87 573.017 347.956 613.906 319.588 631.391C314.838 634.354 309.706 636.653 304.334 638.227C294.25 641.194 283.53 641.225 273.429 638.317C267.387 636.577 261.644 633.932 256.394 630.473C233.746 615.723 216.746 585.933 211.368 549.848C208.969 533.608 208.969 517.104 211.368 500.865C219.085 449.039 250.781 410.219 288.719 410.219C332.432 410.219 367.87 461.757 367.87 525.347Z" fill="#3F3D56"/>
<path d="M165 223C176.046 223 185 214.046 185 203C185 191.954 176.046 183 165 183C153.954 183 145 191.954 145 203C145 214.046 153.954 223 165 223Z" fill="#200000"/>
<path d="M259 223C270.046 223 279 214.046 279 203C279 191.954 270.046 183 259 183C247.954 183 239 191.954 239 203C239 214.046 247.954 223 259 223Z" fill="#1B0000"/>
<path d="M211.368 206.946C166.661 206.946 130.418 237.31 130.418 268.108C130.418 286.169 142.893 302.216 162.218 312.407C175.5 323 188.697 334 211.368 334C234.038 334 245 327 260.517 312.407C279.843 302.216 292.317 286.169 292.317 268.108C292.317 237.31 256.075 206.946 211.368 206.946Z" fill="#6C63FF"/>
<path d="M207.77 289.695C219.692 289.695 229.357 281.641 229.357 271.706C229.357 261.771 219.692 253.717 207.77 253.717C195.848 253.717 186.184 261.771 186.184 271.706C186.184 281.641 195.848 289.695 207.77 289.695Z" fill="#3F3D56"/>
<path d="M211.5 329C241.6 329 266 293.866 266 285.32C266 276.774 241.6 294.591 211.5 294.591C181.4 294.591 157 276.774 157 285.32C157 293.866 181.4 329 211.5 329Z" fill="#2F2E41"/>
<path d="M64.7596 207.846C81.6489 207.846 95.3405 181.671 95.3405 149.382C95.3405 117.094 81.6489 90.9189 64.7596 90.9189C47.8702 90.9189 34.1787 117.094 34.1787 149.382C34.1787 181.671 47.8702 207.846 64.7596 207.846Z" fill="#6C63FF"/>
<path d="M348.982 207.846C365.871 207.846 379.563 181.671 379.563 149.382C379.563 117.094 365.871 90.9189 348.982 90.9189C332.092 90.9189 318.401 117.094 318.401 149.382C318.401 181.671 332.092 207.846 348.982 207.846Z" fill="#6C63FF"/>
<path d="M244.647 9.9696C240.581 9.96671 236.636 11.3482 233.46 13.8865C230.786 9.50408 226.916 5.97667 222.305 3.71948C217.694 1.46229 212.534 0.56927 207.433 1.14553C202.332 1.72179 197.501 3.74334 193.51 6.97225C189.519 10.2012 186.533 14.503 184.904 19.3715C182.995 15.8567 179.969 13.0785 176.304 11.4761C172.639 9.87374 168.544 9.53854 164.668 10.5236C160.791 11.5086 157.353 13.7576 154.897 16.9151C152.442 20.0726 151.109 23.9584 151.109 27.9583C151.109 31.9583 152.442 35.8441 154.897 39.0016C157.353 42.1591 160.791 44.4081 164.668 45.3931C168.544 46.3781 172.639 46.0429 176.304 44.4405C179.969 42.8382 182.995 40.06 184.904 36.5452C186.533 41.4136 189.519 45.7155 193.51 48.9444C197.501 52.1733 202.332 54.1949 207.433 54.7712C212.534 55.3474 217.694 54.4544 222.305 52.1972C226.916 49.94 230.786 46.4126 233.46 42.0302C235.707 43.8171 238.35 45.0399 241.167 45.5964C243.983 46.1528 246.893 46.0267 249.651 45.2287C252.409 44.4306 254.936 42.9837 257.02 41.0091C259.104 39.0344 260.686 36.5894 261.632 33.8784C262.578 31.1675 262.861 28.2695 262.457 25.4267C262.054 22.584 260.976 19.8791 259.313 17.5384C257.65 15.1976 255.451 13.2891 252.899 11.9723C250.348 10.6555 247.518 9.96881 244.647 9.9696V9.9696Z" fill="#3F3D56"/>
<path d="M111.53 569.42V635.744C105.837 633.281 100.515 630.036 95.7183 626.102L111.53 569.42Z" fill="#2F2E41"/>
<path d="M158.175 635.007C153.114 637.391 147.733 639.027 142.201 639.864L150.62 579.152L158.175 635.007Z" fill="#2F2E41"/>
<path d="M273.429 569.42V638.317C267.387 636.577 261.644 633.932 256.394 630.474L273.429 569.42Z" fill="#2F2E41"/>
<path d="M319.588 631.391C314.838 634.354 309.706 636.654 304.334 638.227L312.518 579.152L319.588 631.391Z" fill="#2F2E41"/>
</svg>
